# MagicaVoxel @ Ephtracy

# group
o 

# material
mtllib remote.mtl
usemtl palette

# normals
vn -1 0 0
vn 1 0 0
vn 0 0 1
vn 0 0 -1
vn 0 -1 0
vn 0 1 0

# texcoords
vt 0.841797 0.5
vt 0.970703 0.5
vt 0.986328 0.5
vt 0.994141 0.5

# verts
v -1 -0.1 0.5
v -1 -0.1 -0.5
v -1 0 0.5
v -1 0 -0.5
v -0.9 0 0.4
v -0.9 0 0.2
v -0.9 0.1 0.4
v -0.9 0.1 0.2
v -0.6 0 0.4
v -0.6 0 0.2
v -0.6 0 0.1
v -0.6 0 -0.1
v -0.6 0 -0.2
v -0.6 0 -0.4
v -0.6 0.1 0.4
v -0.6 0.1 0.2
v -0.6 0.1 0.1
v -0.6 0.1 -0.1
v -0.6 0.1 -0.2
v -0.6 0.1 -0.4
v -0.3 0 0.4
v -0.3 0 0.2
v -0.3 0 0.1
v -0.3 0 -0.1
v -0.3 0 -0.2
v -0.3 0 -0.4
v -0.3 0.1 0.4
v -0.3 0.1 0.2
v -0.3 0.1 0.1
v -0.3 0.1 -0.1
v -0.3 0.1 -0.2
v -0.3 0.1 -0.4
v 0 0 0.4
v 0 0 0.2
v 0 0 0.1
v 0 0 -0.1
v 0 0 -0.2
v 0 0 -0.4
v 0 0.1 0.4
v 0 0.1 0.2
v 0 0.1 0.1
v 0 0.1 -0.1
v 0 0.1 -0.2
v 0 0.1 -0.4
v 0.3 0 0.4
v 0.3 0 0.3
v 0.3 0 0
v 0.3 0 -0.2
v 0.3 0.1 0.4
v 0.3 0.1 0.3
v 0.3 0.1 0
v 0.3 0.1 -0.2
v 0.5 0 0.2
v 0.5 0 0
v 0.5 0 -0.2
v 0.5 0 -0.4
v 0.5 0.1 0.2
v 0.5 0.1 0
v 0.5 0.1 -0.2
v 0.5 0.1 -0.4
v -0.7 0 0.4
v -0.7 0 0.2
v -0.7 0.1 0.4
v -0.7 0.1 0.2
v -0.4 0 0.4
v -0.4 0 0.2
v -0.4 0 0.1
v -0.4 0 -0.1
v -0.4 0 -0.2
v -0.4 0 -0.4
v -0.4 0.1 0.4
v -0.4 0.1 0.2
v -0.4 0.1 0.1
v -0.4 0.1 -0.1
v -0.4 0.1 -0.2
v -0.4 0.1 -0.4
v -0.1 0 0.4
v -0.1 0 0.2
v -0.1 0 0.1
v -0.1 0 -0.1
v -0.1 0 -0.2
v -0.1 0 -0.4
v -0.1 0.1 0.4
v -0.1 0.1 0.2
v -0.1 0.1 0.1
v -0.1 0.1 -0.1
v -0.1 0.1 -0.2
v -0.1 0.1 -0.4
v 0.2 0 0.4
v 0.2 0 0.2
v 0.2 0 0.1
v 0.2 0 -0.1
v 0.2 0 -0.2
v 0.2 0 -0.4
v 0.2 0.1 0.4
v 0.2 0.1 0.2
v 0.2 0.1 0.1
v 0.2 0.1 -0.1
v 0.2 0.1 -0.2
v 0.2 0.1 -0.4
v 0.7 0 0.2
v 0.7 0 0
v 0.7 0 -0.2
v 0.7 0 -0.4
v 0.7 0.1 0.2
v 0.7 0.1 0
v 0.7 0.1 -0.2
v 0.7 0.1 -0.4
v 0.9 0 0.4
v 0.9 0 0.3
v 0.9 0 0
v 0.9 0 -0.2
v 0.9 0.1 0.4
v 0.9 0.1 0.3
v 0.9 0.1 0
v 0.9 0.1 -0.2
v 1 -0.1 0.5
v 1 -0.1 -0.5
v 1 0 0.5
v 1 0 -0.5
v -1 -0.1 0.5
v -1 0 0.5
v 1 -0.1 0.5
v 1 0 0.5
v -0.9 0 0.4
v -0.9 0.1 0.4
v -0.7 0 0.4
v -0.7 0.1 0.4
v -0.6 0 0.4
v -0.6 0.1 0.4
v -0.4 0 0.4
v -0.4 0.1 0.4
v -0.3 0 0.4
v -0.3 0.1 0.4
v -0.1 0 0.4
v -0.1 0.1 0.4
v 0 0 0.4
v 0 0.1 0.4
v 0.2 0 0.4
v 0.2 0.1 0.4
v 0.3 0 0.4
v 0.3 0.1 0.4
v 0.4 0 0.4
v 0.4 0.1 0.4
v 0.8 0 0.4
v 0.8 0.1 0.4
v 0.9 0 0.4
v 0.9 0.1 0.4
v 0.5 0 0.2
v 0.5 0.1 0.2
v 0.7 0 0.2
v 0.7 0.1 0.2
v -0.6 0 0.1
v -0.6 0.1 0.1
v -0.4 0 0.1
v -0.4 0.1 0.1
v -0.3 0 0.1
v -0.3 0.1 0.1
v -0.1 0 0.1
v -0.1 0.1 0.1
v 0 0 0.1
v 0 0.1 0.1
v 0.2 0 0.1
v 0.2 0.1 0.1
v 0.3 0 0
v 0.3 0.1 0
v 0.5 0 0
v 0.5 0.1 0
v 0.7 0 0
v 0.7 0.1 0
v 0.9 0 0
v 0.9 0.1 0
v -0.6 0 -0.2
v -0.6 0.1 -0.2
v -0.4 0 -0.2
v -0.4 0.1 -0.2
v -0.3 0 -0.2
v -0.3 0.1 -0.2
v -0.1 0 -0.2
v -0.1 0.1 -0.2
v 0 0 -0.2
v 0 0.1 -0.2
v 0.2 0 -0.2
v 0.2 0.1 -0.2
v 0.3 0 0.3
v 0.3 0.1 0.3
v 0.4 0 0.3
v 0.4 0.1 0.3
v 0.8 0 0.3
v 0.8 0.1 0.3
v 0.9 0 0.3
v 0.9 0.1 0.3
v -0.9 0 0.2
v -0.9 0.1 0.2
v -0.7 0 0.2
v -0.7 0.1 0.2
v -0.6 0 0.2
v -0.6 0.1 0.2
v -0.4 0 0.2
v -0.4 0.1 0.2
v -0.3 0 0.2
v -0.3 0.1 0.2
v -0.1 0 0.2
v -0.1 0.1 0.2
v 0 0 0.2
v 0 0.1 0.2
v 0.2 0 0.2
v 0.2 0.1 0.2
v -0.6 0 -0.1
v -0.6 0.1 -0.1
v -0.4 0 -0.1
v -0.4 0.1 -0.1
v -0.3 0 -0.1
v -0.3 0.1 -0.1
v -0.1 0 -0.1
v -0.1 0.1 -0.1
v 0 0 -0.1
v 0 0.1 -0.1
v 0.2 0 -0.1
v 0.2 0.1 -0.1
v 0.3 0 -0.2
v 0.3 0.1 -0.2
v 0.5 0 -0.2
v 0.5 0.1 -0.2
v 0.7 0 -0.2
v 0.7 0.1 -0.2
v 0.9 0 -0.2
v 0.9 0.1 -0.2
v -0.6 0 -0.4
v -0.6 0.1 -0.4
v -0.4 0 -0.4
v -0.4 0.1 -0.4
v -0.3 0 -0.4
v -0.3 0.1 -0.4
v -0.1 0 -0.4
v -0.1 0.1 -0.4
v 0 0 -0.4
v 0 0.1 -0.4
v 0.2 0 -0.4
v 0.2 0.1 -0.4
v 0.5 0 -0.4
v 0.5 0.1 -0.4
v 0.7 0 -0.4
v 0.7 0.1 -0.4
v -1 -0.1 -0.5
v -1 0 -0.5
v 1 -0.1 -0.5
v 1 0 -0.5
v -1 -0.1 0.5
v 1 -0.1 0.5
v -1 -0.1 -0.5
v 1 -0.1 -0.5
v -1 0 0.5
v 1 0 0.5
v -0.9 0 0.4
v -0.7 0 0.4
v -0.6 0 0.4
v -0.4 0 0.4
v -0.3 0 0.4
v -0.1 0 0.4
v 0 0 0.4
v 0.2 0 0.4
v 0.3 0 0.4
v 0.4 0 0.4
v 0.8 0 0.4
v 0.9 0 0.4
v 0.3 0 0.3
v 0.4 0 0.3
v 0.8 0 0.3
v 0.9 0 0.3
v -0.9 0 0.2
v -0.7 0 0.2
v -0.6 0 0.2
v -0.4 0 0.2
v -0.3 0 0.2
v -0.1 0 0.2
v 0 0 0.2
v 0.2 0 0.2
v 0.5 0 0.2
v 0.7 0 0.2
v -0.6 0 0.1
v -0.4 0 0.1
v -0.3 0 0.1
v -0.1 0 0.1
v 0 0 0.1
v 0.2 0 0.1
v 0.3 0 0
v 0.5 0 0
v 0.7 0 0
v 0.9 0 0
v -0.6 0 -0.1
v -0.4 0 -0.1
v -0.3 0 -0.1
v -0.1 0 -0.1
v 0 0 -0.1
v 0.2 0 -0.1
v -0.6 0 -0.2
v -0.4 0 -0.2
v -0.3 0 -0.2
v -0.1 0 -0.2
v 0 0 -0.2
v 0.2 0 -0.2
v 0.3 0 -0.2
v 0.5 0 -0.2
v 0.7 0 -0.2
v 0.9 0 -0.2
v -0.6 0 -0.4
v -0.4 0 -0.4
v -0.3 0 -0.4
v -0.1 0 -0.4
v 0 0 -0.4
v 0.2 0 -0.4
v 0.5 0 -0.4
v 0.7 0 -0.4
v -1 0 -0.5
v 1 0 -0.5
v -0.9 0.1 0.4
v -0.7 0.1 0.4
v -0.6 0.1 0.4
v -0.4 0.1 0.4
v -0.3 0.1 0.4
v -0.1 0.1 0.4
v 0 0.1 0.4
v 0.2 0.1 0.4
v 0.3 0.1 0.4
v 0.4 0.1 0.4
v 0.8 0.1 0.4
v 0.9 0.1 0.4
v 0.3 0.1 0.3
v 0.4 0.1 0.3
v 0.8 0.1 0.3
v 0.9 0.1 0.3
v -0.9 0.1 0.2
v -0.7 0.1 0.2
v -0.6 0.1 0.2
v -0.4 0.1 0.2
v -0.3 0.1 0.2
v -0.1 0.1 0.2
v 0 0.1 0.2
v 0.2 0.1 0.2
v 0.5 0.1 0.2
v 0.7 0.1 0.2
v -0.6 0.1 0.1
v -0.4 0.1 0.1
v -0.3 0.1 0.1
v -0.1 0.1 0.1
v 0 0.1 0.1
v 0.2 0.1 0.1
v 0.3 0.1 0
v 0.5 0.1 0
v 0.7 0.1 0
v 0.9 0.1 0
v -0.6 0.1 -0.1
v -0.4 0.1 -0.1
v -0.3 0.1 -0.1
v -0.1 0.1 -0.1
v 0 0.1 -0.1
v 0.2 0.1 -0.1
v -0.6 0.1 -0.2
v -0.4 0.1 -0.2
v -0.3 0.1 -0.2
v -0.1 0.1 -0.2
v 0 0.1 -0.2
v 0.2 0.1 -0.2
v 0.3 0.1 -0.2
v 0.5 0.1 -0.2
v 0.7 0.1 -0.2
v 0.9 0.1 -0.2
v -0.6 0.1 -0.4
v -0.4 0.1 -0.4
v -0.3 0.1 -0.4
v -0.1 0.1 -0.4
v 0 0.1 -0.4
v 0.2 0.1 -0.4
v 0.5 0.1 -0.4
v 0.7 0.1 -0.4

# faces
f 3/4/1 2/4/1 1/4/1
f 4/4/1 2/4/1 3/4/1
f 7/1/1 6/1/1 5/1/1
f 8/1/1 6/1/1 7/1/1
f 15/2/1 10/2/1 9/2/1
f 16/2/1 10/2/1 15/2/1
f 17/2/1 12/2/1 11/2/1
f 18/2/1 12/2/1 17/2/1
f 19/2/1 14/2/1 13/2/1
f 20/2/1 14/2/1 19/2/1
f 27/2/1 22/2/1 21/2/1
f 28/2/1 22/2/1 27/2/1
f 29/2/1 24/2/1 23/2/1
f 30/2/1 24/2/1 29/2/1
f 31/2/1 26/2/1 25/2/1
f 32/2/1 26/2/1 31/2/1
f 39/2/1 34/2/1 33/2/1
f 40/2/1 34/2/1 39/2/1
f 41/2/1 36/2/1 35/2/1
f 42/2/1 36/2/1 41/2/1
f 43/2/1 38/2/1 37/2/1
f 44/2/1 38/2/1 43/2/1
f 49/3/1 46/3/1 45/3/1
f 50/3/1 46/3/1 49/3/1
f 51/2/1 48/2/1 47/2/1
f 52/2/1 48/2/1 51/2/1
f 57/2/1 54/2/1 53/2/1
f 58/2/1 54/2/1 57/2/1
f 59/2/1 56/2/1 55/2/1
f 60/2/1 56/2/1 59/2/1
f 61/1/2 62/1/2 63/1/2
f 63/1/2 62/1/2 64/1/2
f 65/2/2 66/2/2 71/2/2
f 71/2/2 66/2/2 72/2/2
f 67/2/2 68/2/2 73/2/2
f 73/2/2 68/2/2 74/2/2
f 69/2/2 70/2/2 75/2/2
f 75/2/2 70/2/2 76/2/2
f 77/2/2 78/2/2 83/2/2
f 83/2/2 78/2/2 84/2/2
f 79/2/2 80/2/2 85/2/2
f 85/2/2 80/2/2 86/2/2
f 81/2/2 82/2/2 87/2/2
f 87/2/2 82/2/2 88/2/2
f 89/2/2 90/2/2 95/2/2
f 95/2/2 90/2/2 96/2/2
f 91/2/2 92/2/2 97/2/2
f 97/2/2 92/2/2 98/2/2
f 93/2/2 94/2/2 99/2/2
f 99/2/2 94/2/2 100/2/2
f 101/2/2 102/2/2 105/2/2
f 105/2/2 102/2/2 106/2/2
f 103/2/2 104/2/2 107/2/2
f 107/2/2 104/2/2 108/2/2
f 109/3/2 110/3/2 113/3/2
f 113/3/2 110/3/2 114/3/2
f 111/2/2 112/2/2 115/2/2
f 115/2/2 112/2/2 116/2/2
f 117/4/2 118/4/2 119/4/2
f 119/4/2 118/4/2 120/4/2
f 123/4/3 122/4/3 121/4/3
f 124/4/3 122/4/3 123/4/3
f 127/1/3 126/1/3 125/1/3
f 128/1/3 126/1/3 127/1/3
f 131/2/3 130/2/3 129/2/3
f 132/2/3 130/2/3 131/2/3
f 135/2/3 134/2/3 133/2/3
f 136/2/3 134/2/3 135/2/3
f 139/2/3 138/2/3 137/2/3
f 140/2/3 138/2/3 139/2/3
f 143/3/3 142/3/3 141/3/3
f 144/3/3 142/3/3 143/3/3
f 145/2/3 144/2/3 143/2/3
f 146/2/3 144/2/3 145/2/3
f 147/3/3 146/3/3 145/3/3
f 148/3/3 146/3/3 147/3/3
f 151/2/3 150/2/3 149/2/3
f 152/2/3 150/2/3 151/2/3
f 155/2/3 154/2/3 153/2/3
f 156/2/3 154/2/3 155/2/3
f 159/2/3 158/2/3 157/2/3
f 160/2/3 158/2/3 159/2/3
f 163/2/3 162/2/3 161/2/3
f 164/2/3 162/2/3 163/2/3
f 167/2/3 166/2/3 165/2/3
f 168/2/3 166/2/3 167/2/3
f 171/2/3 170/2/3 169/2/3
f 172/2/3 170/2/3 171/2/3
f 175/2/3 174/2/3 173/2/3
f 176/2/3 174/2/3 175/2/3
f 179/2/3 178/2/3 177/2/3
f 180/2/3 178/2/3 179/2/3
f 183/2/3 182/2/3 181/2/3
f 184/2/3 182/2/3 183/2/3
f 185/3/4 186/3/4 187/3/4
f 187/3/4 186/3/4 188/3/4
f 187/2/4 188/2/4 189/2/4
f 189/2/4 188/2/4 190/2/4
f 189/3/4 190/3/4 191/3/4
f 191/3/4 190/3/4 192/3/4
f 193/1/4 194/1/4 195/1/4
f 195/1/4 194/1/4 196/1/4
f 197/2/4 198/2/4 199/2/4
f 199/2/4 198/2/4 200/2/4
f 201/2/4 202/2/4 203/2/4
f 203/2/4 202/2/4 204/2/4
f 205/2/4 206/2/4 207/2/4
f 207/2/4 206/2/4 208/2/4
f 209/2/4 210/2/4 211/2/4
f 211/2/4 210/2/4 212/2/4
f 213/2/4 214/2/4 215/2/4
f 215/2/4 214/2/4 216/2/4
f 217/2/4 218/2/4 219/2/4
f 219/2/4 218/2/4 220/2/4
f 221/2/4 222/2/4 223/2/4
f 223/2/4 222/2/4 224/2/4
f 225/2/4 226/2/4 227/2/4
f 227/2/4 226/2/4 228/2/4
f 229/2/4 230/2/4 231/2/4
f 231/2/4 230/2/4 232/2/4
f 233/2/4 234/2/4 235/2/4
f 235/2/4 234/2/4 236/2/4
f 237/2/4 238/2/4 239/2/4
f 239/2/4 238/2/4 240/2/4
f 241/2/4 242/2/4 243/2/4
f 243/2/4 242/2/4 244/2/4
f 245/4/4 246/4/4 247/4/4
f 247/4/4 246/4/4 248/4/4
f 251/4/5 250/4/5 249/4/5
f 252/4/5 250/4/5 251/4/5
f 253/4/6 254/4/6 255/4/6
f 255/4/6 254/4/6 256/4/6
f 256/4/6 254/4/6 257/4/6
f 257/4/6 254/4/6 258/4/6
f 258/4/6 254/4/6 259/4/6
f 259/4/6 254/4/6 260/4/6
f 260/4/6 254/4/6 261/4/6
f 261/4/6 254/4/6 262/4/6
f 262/4/6 254/4/6 263/4/6
f 263/4/6 254/4/6 264/4/6
f 264/4/6 254/4/6 265/4/6
f 265/4/6 254/4/6 266/4/6
f 262/4/6 263/4/6 267/4/6
f 266/4/6 254/4/6 270/4/6
f 253/4/6 255/4/6 271/4/6
f 256/4/6 257/4/6 272/4/6
f 272/4/6 257/4/6 273/4/6
f 258/4/6 259/4/6 274/4/6
f 274/4/6 259/4/6 275/4/6
f 260/4/6 261/4/6 276/4/6
f 276/4/6 261/4/6 277/4/6
f 269/4/6 270/4/6 278/4/6
f 268/4/6 269/4/6 278/4/6
f 262/4/6 267/4/6 278/4/6
f 267/4/6 268/4/6 278/4/6
f 278/4/6 270/4/6 279/4/6
f 279/4/6 270/4/6 280/4/6
f 276/4/6 277/4/6 281/4/6
f 275/4/6 276/4/6 281/4/6
f 278/4/6 279/4/6 281/4/6
f 277/4/6 278/4/6 281/4/6
f 274/4/6 275/4/6 281/4/6
f 272/4/6 273/4/6 281/4/6
f 271/4/6 272/4/6 281/4/6
f 273/4/6 274/4/6 281/4/6
f 281/4/6 279/4/6 282/4/6
f 282/4/6 279/4/6 283/4/6
f 283/4/6 279/4/6 284/4/6
f 284/4/6 279/4/6 285/4/6
f 285/4/6 279/4/6 286/4/6
f 286/4/6 279/4/6 287/4/6
f 287/4/6 279/4/6 288/4/6
f 280/4/6 270/4/6 289/4/6
f 270/4/6 254/4/6 290/4/6
f 289/4/6 270/4/6 290/4/6
f 271/4/6 281/4/6 291/4/6
f 282/4/6 283/4/6 292/4/6
f 292/4/6 283/4/6 293/4/6
f 284/4/6 285/4/6 294/4/6
f 294/4/6 285/4/6 295/4/6
f 286/4/6 287/4/6 296/4/6
f 294/4/6 295/4/6 297/4/6
f 295/4/6 296/4/6 297/4/6
f 292/4/6 293/4/6 297/4/6
f 271/4/6 291/4/6 297/4/6
f 293/4/6 294/4/6 297/4/6
f 291/4/6 292/4/6 297/4/6
f 297/4/6 296/4/6 298/4/6
f 298/4/6 296/4/6 299/4/6
f 299/4/6 296/4/6 300/4/6
f 300/4/6 296/4/6 301/4/6
f 296/4/6 287/4/6 302/4/6
f 301/4/6 296/4/6 302/4/6
f 302/4/6 287/4/6 303/4/6
f 290/4/6 254/4/6 306/4/6
f 271/4/6 297/4/6 307/4/6
f 298/4/6 299/4/6 308/4/6
f 308/4/6 299/4/6 309/4/6
f 300/4/6 301/4/6 310/4/6
f 310/4/6 301/4/6 311/4/6
f 303/4/6 304/4/6 312/4/6
f 302/4/6 303/4/6 312/4/6
f 312/4/6 304/4/6 313/4/6
f 305/4/6 306/4/6 314/4/6
f 310/4/6 311/4/6 315/4/6
f 313/4/6 314/4/6 315/4/6
f 253/4/6 271/4/6 315/4/6
f 308/4/6 309/4/6 315/4/6
f 311/4/6 312/4/6 315/4/6
f 312/4/6 313/4/6 315/4/6
f 271/4/6 307/4/6 315/4/6
f 307/4/6 308/4/6 315/4/6
f 309/4/6 310/4/6 315/4/6
f 314/4/6 306/4/6 316/4/6
f 315/4/6 314/4/6 316/4/6
f 306/4/6 254/4/6 316/4/6
f 325/3/6 326/3/6 329/3/6
f 326/2/6 327/2/6 330/2/6
f 329/3/6 326/3/6 330/3/6
f 327/3/6 328/3/6 331/3/6
f 330/2/6 327/2/6 331/2/6
f 331/3/6 328/3/6 332/3/6
f 317/1/6 318/1/6 333/1/6
f 333/1/6 318/1/6 334/1/6
f 319/2/6 320/2/6 335/2/6
f 335/2/6 320/2/6 336/2/6
f 321/2/6 322/2/6 337/2/6
f 337/2/6 322/2/6 338/2/6
f 323/2/6 324/2/6 339/2/6
f 339/2/6 324/2/6 340/2/6
f 341/2/6 342/2/6 350/2/6
f 350/2/6 342/2/6 351/2/6
f 343/2/6 344/2/6 353/2/6
f 353/2/6 344/2/6 354/2/6
f 345/2/6 346/2/6 355/2/6
f 355/2/6 346/2/6 356/2/6
f 347/2/6 348/2/6 357/2/6
f 357/2/6 348/2/6 358/2/6
f 351/2/6 352/2/6 365/2/6
f 349/2/6 350/2/6 365/2/6
f 350/2/6 351/2/6 365/2/6
f 365/2/6 352/2/6 366/2/6
f 366/2/6 352/2/6 367/2/6
f 367/2/6 352/2/6 368/2/6
f 359/2/6 360/2/6 369/2/6
f 369/2/6 360/2/6 370/2/6
f 361/2/6 362/2/6 371/2/6
f 371/2/6 362/2/6 372/2/6
f 363/2/6 364/2/6 373/2/6
f 373/2/6 364/2/6 374/2/6
f 366/2/6 367/2/6 375/2/6
f 375/2/6 367/2/6 376/2/6
