# MagicaVoxel @ Ephtracy

# group
o 

# material
mtllib ScreenFuzzy.mtl
usemtl palette

# normals
vn -1 0 0
vn 1 0 0
vn 0 0 1
vn 0 0 -1
vn 0 -1 0
vn 0 1 0

# texcoords
vt 0.978516 0.5
vt 0.990234 0.5
vt 0.994141 0.5

# verts
v -0.8 -0.4 0.7
v -0.8 -0.4 0.6
v -0.8 0.8 0.7
v -0.8 0.8 0.6
v 0.8 -0.4 0.7
v 0.8 -0.4 0.6
v 0.8 0.8 0.7
v 0.8 0.8 0.6
v -0.8 -0.4 0.7
v -0.8 0.8 0.7
v -0.7 -0.3 0.7
v -0.7 -0.2 0.7
v -0.7 -0.1 0.7
v -0.7 0 0.7
v -0.7 0.1 0.7
v -0.7 0.2 0.7
v -0.7 0.3 0.7
v -0.7 0.5 0.7
v -0.7 0.6 0.7
v -0.7 0.7 0.7
v -0.6 -0.1 0.7
v -0.6 0 0.7
v -0.6 0.1 0.7
v -0.6 0.2 0.7
v -0.6 0.6 0.7
v -0.6 0.7 0.7
v -0.5 0.1 0.7
v -0.5 0.2 0.7
v -0.5 0.5 0.7
v -0.5 0.7 0.7
v -0.4 -0.1 0.7
v -0.4 0.1 0.7
v -0.4 0.4 0.7
v -0.4 0.7 0.7
v -0.3 -0.1 0.7
v -0.3 0.1 0.7
v -0.3 0.2 0.7
v -0.3 0.3 0.7
v -0.3 0.4 0.7
v -0.3 0.5 0.7
v -0.3 0.6 0.7
v -0.3 0.7 0.7
v -0.2 -0.2 0.7
v -0.2 -0.1 0.7
v -0.2 0.1 0.7
v -0.2 0.2 0.7
v -0.2 0.5 0.7
v -0.2 0.6 0.7
v -0.1 -0.3 0.7
v -0.1 -0.2 0.7
v -0.1 -0.1 0.7
v -0.1 0.2 0.7
v -0.1 0.3 0.7
v -0.1 0.5 0.7
v -0.1 0.7 0.7
v 0 -0.2 0.7
v 0 -0.1 0.7
v 0 0.1 0.7
v 0 0.2 0.7
v 0 0.3 0.7
v 0 0.5 0.7
v 0 0.6 0.7
v 0.1 -0.3 0.7
v 0.1 -0.2 0.7
v 0.1 0.2 0.7
v 0.1 0.3 0.7
v 0.1 0.4 0.7
v 0.1 0.5 0.7
v 0.1 0.6 0.7
v 0.1 0.7 0.7
v 0.2 -0.2 0.7
v 0.2 -0.1 0.7
v 0.2 0 0.7
v 0.2 0.1 0.7
v 0.2 0.3 0.7
v 0.2 0.4 0.7
v 0.3 -0.2 0.7
v 0.3 -0.1 0.7
v 0.3 0 0.7
v 0.3 0.1 0.7
v 0.4 -0.3 0.7
v 0.4 -0.2 0.7
v 0.4 0 0.7
v 0.4 0.1 0.7
v 0.4 0.4 0.7
v 0.4 0.5 0.7
v 0.4 0.6 0.7
v 0.5 -0.1 0.7
v 0.5 0 0.7
v 0.5 0.1 0.7
v 0.5 0.2 0.7
v 0.5 0.3 0.7
v 0.5 0.4 0.7
v 0.6 -0.2 0.7
v 0.6 -0.1 0.7
v 0.6 0.2 0.7
v 0.6 0.3 0.7
v 0.7 -0.3 0.7
v 0.7 -0.2 0.7
v 0.7 0 0.7
v 0.7 0.1 0.7
v 0.7 0.4 0.7
v 0.7 0.5 0.7
v 0.7 0.7 0.7
v 0.8 -0.4 0.7
v 0.8 0.8 0.7
v -0.8 -0.4 0.6
v -0.8 0.8 0.6
v -0.7 -0.3 0.6
v -0.7 -0.2 0.6
v -0.7 -0.1 0.6
v -0.7 0 0.6
v -0.7 0.1 0.6
v -0.7 0.2 0.6
v -0.7 0.3 0.6
v -0.7 0.5 0.6
v -0.7 0.6 0.6
v -0.7 0.7 0.6
v -0.6 -0.1 0.6
v -0.6 0 0.6
v -0.6 0.1 0.6
v -0.6 0.2 0.6
v -0.6 0.6 0.6
v -0.6 0.7 0.6
v -0.5 0.1 0.6
v -0.5 0.2 0.6
v -0.5 0.5 0.6
v -0.5 0.7 0.6
v -0.4 -0.1 0.6
v -0.4 0.1 0.6
v -0.4 0.4 0.6
v -0.4 0.7 0.6
v -0.3 -0.1 0.6
v -0.3 0.1 0.6
v -0.3 0.2 0.6
v -0.3 0.3 0.6
v -0.3 0.4 0.6
v -0.3 0.5 0.6
v -0.3 0.6 0.6
v -0.3 0.7 0.6
v -0.2 -0.2 0.6
v -0.2 -0.1 0.6
v -0.2 0.1 0.6
v -0.2 0.2 0.6
v -0.2 0.5 0.6
v -0.2 0.6 0.6
v -0.1 -0.3 0.6
v -0.1 -0.2 0.6
v -0.1 -0.1 0.6
v -0.1 0.2 0.6
v -0.1 0.3 0.6
v -0.1 0.5 0.6
v -0.1 0.7 0.6
v 0 -0.2 0.6
v 0 -0.1 0.6
v 0 0.1 0.6
v 0 0.2 0.6
v 0 0.3 0.6
v 0 0.5 0.6
v 0 0.6 0.6
v 0.1 -0.3 0.6
v 0.1 -0.2 0.6
v 0.1 0.2 0.6
v 0.1 0.3 0.6
v 0.1 0.4 0.6
v 0.1 0.5 0.6
v 0.1 0.6 0.6
v 0.1 0.7 0.6
v 0.2 -0.2 0.6
v 0.2 -0.1 0.6
v 0.2 0 0.6
v 0.2 0.1 0.6
v 0.2 0.3 0.6
v 0.2 0.4 0.6
v 0.3 -0.2 0.6
v 0.3 -0.1 0.6
v 0.3 0 0.6
v 0.3 0.1 0.6
v 0.4 -0.3 0.6
v 0.4 -0.2 0.6
v 0.4 0 0.6
v 0.4 0.1 0.6
v 0.4 0.4 0.6
v 0.4 0.5 0.6
v 0.4 0.6 0.6
v 0.5 -0.1 0.6
v 0.5 0 0.6
v 0.5 0.1 0.6
v 0.5 0.2 0.6
v 0.5 0.3 0.6
v 0.5 0.4 0.6
v 0.6 -0.2 0.6
v 0.6 -0.1 0.6
v 0.6 0.2 0.6
v 0.6 0.3 0.6
v 0.7 -0.3 0.6
v 0.7 -0.2 0.6
v 0.7 0 0.6
v 0.7 0.1 0.6
v 0.7 0.4 0.6
v 0.7 0.5 0.6
v 0.7 0.7 0.6
v 0.8 -0.4 0.6
v 0.8 0.8 0.6
v -0.8 -0.4 0.7
v 0.8 -0.4 0.7
v -0.8 -0.4 0.6
v 0.8 -0.4 0.6
v -0.8 0.8 0.7
v 0.8 0.8 0.7
v -0.8 0.8 0.6
v 0.8 0.8 0.6

# faces
f 3/1/1 2/1/1 1/1/1
f 4/1/1 2/1/1 3/1/1
f 5/1/2 6/1/2 7/1/2
f 7/1/2 6/1/2 8/1/2
f 11/1/3 10/1/3 9/1/3
f 12/1/3 10/1/3 11/1/3
f 13/1/3 10/1/3 12/1/3
f 14/1/3 10/1/3 13/1/3
f 15/1/3 10/1/3 14/1/3
f 16/1/3 10/1/3 15/1/3
f 17/1/3 10/1/3 16/1/3
f 18/1/3 10/1/3 17/1/3
f 19/1/3 10/1/3 18/1/3
f 20/1/3 10/1/3 19/1/3
f 21/3/3 13/3/3 12/3/3
f 21/2/3 14/2/3 13/2/3
f 22/3/3 15/3/3 14/3/3
f 22/2/3 14/2/3 21/2/3
f 23/2/3 16/2/3 15/2/3
f 23/3/3 15/3/3 22/3/3
f 24/3/3 17/3/3 16/3/3
f 24/2/3 16/2/3 23/2/3
f 25/2/3 20/2/3 19/2/3
f 25/3/3 19/3/3 18/3/3
f 26/1/3 10/1/3 20/1/3
f 26/2/3 20/2/3 25/2/3
f 27/3/3 22/3/3 21/3/3
f 27/3/3 23/3/3 22/3/3
f 27/3/3 24/3/3 23/3/3
f 28/3/3 17/3/3 24/3/3
f 28/3/3 24/3/3 27/3/3
f 29/3/3 25/3/3 18/3/3
f 29/3/3 26/3/3 25/3/3
f 29/2/3 18/2/3 17/2/3
f 30/1/3 10/1/3 26/1/3
f 30/3/3 26/3/3 29/3/3
f 31/3/3 27/3/3 21/3/3
f 31/3/3 21/3/3 12/3/3
f 32/2/3 28/2/3 27/2/3
f 32/3/3 27/3/3 31/3/3
f 33/2/3 30/2/3 29/2/3
f 33/2/3 29/2/3 17/2/3
f 34/1/3 10/1/3 30/1/3
f 34/2/3 30/2/3 33/2/3
f 35/2/3 32/2/3 31/2/3
f 35/3/3 31/3/3 12/3/3
f 36/2/3 28/2/3 32/2/3
f 36/2/3 32/2/3 35/2/3
f 37/3/3 17/3/3 28/3/3
f 37/2/3 28/2/3 36/2/3
f 38/2/3 33/2/3 17/2/3
f 38/3/3 17/3/3 37/3/3
f 39/3/3 34/3/3 33/3/3
f 39/2/3 33/2/3 38/2/3
f 40/3/3 34/3/3 39/3/3
f 41/3/3 34/3/3 40/3/3
f 42/1/3 10/1/3 34/1/3
f 42/3/3 34/3/3 41/3/3
f 43/2/3 12/2/3 11/2/3
f 43/3/3 36/3/3 35/3/3
f 43/3/3 35/3/3 12/3/3
f 44/3/3 36/3/3 43/3/3
f 45/2/3 37/2/3 36/2/3
f 45/3/3 36/3/3 44/3/3
f 45/2/3 38/2/3 37/2/3
f 46/2/3 38/2/3 45/2/3
f 47/2/3 40/2/3 39/2/3
f 47/3/3 41/3/3 40/3/3
f 48/2/3 42/2/3 41/2/3
f 48/3/3 41/3/3 47/3/3
f 49/1/3 11/1/3 9/1/3
f 49/2/3 44/2/3 43/2/3
f 49/2/3 43/2/3 11/2/3
f 50/2/3 44/2/3 49/2/3
f 51/3/3 46/3/3 45/3/3
f 51/2/3 44/2/3 50/2/3
f 51/3/3 45/3/3 44/3/3
f 52/2/3 38/2/3 46/2/3
f 52/3/3 46/3/3 51/3/3
f 53/3/3 39/3/3 38/3/3
f 53/2/3 38/2/3 52/2/3
f 54/2/3 47/2/3 39/2/3
f 54/2/3 48/2/3 47/2/3
f 55/2/3 42/2/3 48/2/3
f 55/2/3 48/2/3 54/2/3
f 55/1/3 10/1/3 42/1/3
f 56/2/3 52/2/3 51/2/3
f 56/2/3 51/2/3 50/2/3
f 56/3/3 50/3/3 49/3/3
f 57/2/3 52/2/3 56/2/3
f 58/2/3 52/2/3 57/2/3
f 59/3/3 53/3/3 52/3/3
f 59/2/3 52/2/3 58/2/3
f 60/3/3 39/3/3 53/3/3
f 60/3/3 53/3/3 59/3/3
f 61/2/3 54/2/3 39/2/3
f 61/3/3 55/3/3 54/3/3
f 62/3/3 55/3/3 61/3/3
f 63/1/3 49/1/3 9/1/3
f 63/3/3 56/3/3 49/3/3
f 63/3/3 57/3/3 56/3/3
f 64/3/3 57/3/3 63/3/3
f 65/3/3 59/3/3 58/3/3
f 65/2/3 60/2/3 59/2/3
f 66/3/3 39/3/3 60/3/3
f 66/2/3 60/2/3 65/2/3
f 67/2/3 62/2/3 61/2/3
f 67/3/3 39/3/3 66/3/3
f 67/2/3 61/2/3 39/2/3
f 68/2/3 62/2/3 67/2/3
f 69/3/3 55/3/3 62/3/3
f 69/2/3 62/2/3 68/2/3
f 70/1/3 10/1/3 55/1/3
f 70/3/3 55/3/3 69/3/3
f 71/3/3 57/3/3 64/3/3
f 71/2/3 64/2/3 63/2/3
f 72/2/3 58/2/3 57/2/3
f 72/3/3 57/3/3 71/3/3
f 73/2/3 58/2/3 72/2/3
f 74/3/3 65/3/3 58/3/3
f 74/2/3 58/2/3 73/2/3
f 74/3/3 66/3/3 65/3/3
f 75/2/3 68/2/3 67/2/3
f 75/3/3 66/3/3 74/3/3
f 75/2/3 67/2/3 66/2/3
f 76/2/3 68/2/3 75/2/3
f 77/2/3 71/2/3 63/2/3
f 77/2/3 72/2/3 71/2/3
f 78/3/3 73/3/3 72/3/3
f 78/2/3 72/2/3 77/2/3
f 79/2/3 74/2/3 73/2/3
f 79/3/3 73/3/3 78/3/3
f 79/2/3 75/2/3 74/2/3
f 80/2/3 75/2/3 79/2/3
f 81/2/3 77/2/3 63/2/3
f 81/1/3 63/1/3 9/1/3
f 82/3/3 78/3/3 77/3/3
f 82/2/3 77/2/3 81/2/3
f 82/3/3 80/3/3 79/3/3
f 82/3/3 79/3/3 78/3/3
f 83/3/3 80/3/3 82/3/3
f 84/2/3 75/2/3 80/2/3
f 84/3/3 80/3/3 83/3/3
f 85/2/3 68/2/3 76/2/3
f 85/3/3 76/3/3 75/3/3
f 86/3/3 69/3/3 68/3/3
f 86/2/3 68/2/3 85/2/3
f 87/2/3 70/2/3 69/2/3
f 87/3/3 69/3/3 86/3/3
f 88/3/3 83/3/3 82/3/3
f 88/3/3 82/3/3 81/3/3
f 89/2/3 84/2/3 83/2/3
f 89/3/3 83/3/3 88/3/3
f 90/2/3 75/2/3 84/2/3
f 90/2/3 84/2/3 89/2/3
f 91/2/3 75/2/3 90/2/3
f 92/3/3 85/3/3 75/3/3
f 92/2/3 75/2/3 91/2/3
f 92/3/3 86/3/3 85/3/3
f 93/3/3 86/3/3 92/3/3
f 94/3/3 88/3/3 81/3/3
f 95/2/3 89/2/3 88/2/3
f 95/3/3 88/3/3 94/3/3
f 96/2/3 91/2/3 90/2/3
f 96/3/3 92/3/3 91/3/3
f 97/2/3 93/2/3 92/2/3
f 97/3/3 92/3/3 96/3/3
f 98/3/3 94/3/3 81/3/3
f 98/1/3 81/1/3 9/1/3
f 99/2/3 95/2/3 94/2/3
f 99/3/3 94/3/3 98/3/3
f 100/2/3 89/2/3 95/2/3
f 100/2/3 95/2/3 99/2/3
f 100/3/3 90/3/3 89/3/3
f 101/2/3 96/2/3 90/2/3
f 101/3/3 90/3/3 100/3/3
f 101/2/3 97/2/3 96/2/3
f 102/2/3 93/2/3 97/2/3
f 102/2/3 97/2/3 101/2/3
f 102/3/3 86/3/3 93/3/3
f 103/2/3 87/2/3 86/2/3
f 103/3/3 86/3/3 102/3/3
f 104/2/3 70/2/3 87/2/3
f 104/2/3 87/2/3 103/2/3
f 104/1/3 10/1/3 70/1/3
f 105/1/3 103/1/3 102/1/3
f 105/1/3 99/1/3 98/1/3
f 105/1/3 104/1/3 103/1/3
f 105/1/3 98/1/3 9/1/3
f 105/1/3 100/1/3 99/1/3
f 105/1/3 101/1/3 100/1/3
f 105/1/3 102/1/3 101/1/3
f 106/1/3 10/1/3 104/1/3
f 106/1/3 104/1/3 105/1/3
f 107/1/4 108/1/4 109/1/4
f 109/1/4 108/1/4 110/1/4
f 110/1/4 108/1/4 111/1/4
f 111/1/4 108/1/4 112/1/4
f 112/1/4 108/1/4 113/1/4
f 113/1/4 108/1/4 114/1/4
f 114/1/4 108/1/4 115/1/4
f 115/1/4 108/1/4 116/1/4
f 116/1/4 108/1/4 117/1/4
f 117/1/4 108/1/4 118/1/4
f 110/3/4 111/3/4 119/3/4
f 111/2/4 112/2/4 119/2/4
f 112/3/4 113/3/4 120/3/4
f 119/2/4 112/2/4 120/2/4
f 113/2/4 114/2/4 121/2/4
f 120/3/4 113/3/4 121/3/4
f 114/3/4 115/3/4 122/3/4
f 121/2/4 114/2/4 122/2/4
f 117/2/4 118/2/4 123/2/4
f 116/3/4 117/3/4 123/3/4
f 118/1/4 108/1/4 124/1/4
f 123/2/4 118/2/4 124/2/4
f 119/3/4 120/3/4 125/3/4
f 120/3/4 121/3/4 125/3/4
f 121/3/4 122/3/4 125/3/4
f 122/3/4 115/3/4 126/3/4
f 125/3/4 122/3/4 126/3/4
f 116/3/4 123/3/4 127/3/4
f 123/3/4 124/3/4 127/3/4
f 115/2/4 116/2/4 127/2/4
f 124/1/4 108/1/4 128/1/4
f 127/3/4 124/3/4 128/3/4
f 119/3/4 125/3/4 129/3/4
f 110/3/4 119/3/4 129/3/4
f 125/2/4 126/2/4 130/2/4
f 129/3/4 125/3/4 130/3/4
f 127/2/4 128/2/4 131/2/4
f 115/2/4 127/2/4 131/2/4
f 128/1/4 108/1/4 132/1/4
f 131/2/4 128/2/4 132/2/4
f 129/2/4 130/2/4 133/2/4
f 110/3/4 129/3/4 133/3/4
f 130/2/4 126/2/4 134/2/4
f 133/2/4 130/2/4 134/2/4
f 126/3/4 115/3/4 135/3/4
f 134/2/4 126/2/4 135/2/4
f 115/2/4 131/2/4 136/2/4
f 135/3/4 115/3/4 136/3/4
f 131/3/4 132/3/4 137/3/4
f 136/2/4 131/2/4 137/2/4
f 137/3/4 132/3/4 138/3/4
f 138/3/4 132/3/4 139/3/4
f 132/1/4 108/1/4 140/1/4
f 139/3/4 132/3/4 140/3/4
f 109/2/4 110/2/4 141/2/4
f 133/3/4 134/3/4 141/3/4
f 110/3/4 133/3/4 141/3/4
f 141/3/4 134/3/4 142/3/4
f 134/2/4 135/2/4 143/2/4
f 142/3/4 134/3/4 143/3/4
f 135/2/4 136/2/4 143/2/4
f 143/2/4 136/2/4 144/2/4
f 137/2/4 138/2/4 145/2/4
f 138/3/4 139/3/4 145/3/4
f 139/2/4 140/2/4 146/2/4
f 145/3/4 139/3/4 146/3/4
f 107/1/4 109/1/4 147/1/4
f 141/2/4 142/2/4 147/2/4
f 109/2/4 141/2/4 147/2/4
f 147/2/4 142/2/4 148/2/4
f 143/3/4 144/3/4 149/3/4
f 148/2/4 142/2/4 149/2/4
f 142/3/4 143/3/4 149/3/4
f 144/2/4 136/2/4 150/2/4
f 149/3/4 144/3/4 150/3/4
f 136/3/4 137/3/4 151/3/4
f 150/2/4 136/2/4 151/2/4
f 137/2/4 145/2/4 152/2/4
f 145/2/4 146/2/4 152/2/4
f 146/2/4 140/2/4 153/2/4
f 152/2/4 146/2/4 153/2/4
f 140/1/4 108/1/4 153/1/4
f 149/2/4 150/2/4 154/2/4
f 148/2/4 149/2/4 154/2/4
f 147/3/4 148/3/4 154/3/4
f 154/2/4 150/2/4 155/2/4
f 155/2/4 150/2/4 156/2/4
f 150/3/4 151/3/4 157/3/4
f 156/2/4 150/2/4 157/2/4
f 151/3/4 137/3/4 158/3/4
f 157/3/4 151/3/4 158/3/4
f 137/2/4 152/2/4 159/2/4
f 152/3/4 153/3/4 159/3/4
f 159/3/4 153/3/4 160/3/4
f 107/1/4 147/1/4 161/1/4
f 147/3/4 154/3/4 161/3/4
f 154/3/4 155/3/4 161/3/4
f 161/3/4 155/3/4 162/3/4
f 156/3/4 157/3/4 163/3/4
f 157/2/4 158/2/4 163/2/4
f 158/3/4 137/3/4 164/3/4
f 163/2/4 158/2/4 164/2/4
f 159/2/4 160/2/4 165/2/4
f 164/3/4 137/3/4 165/3/4
f 137/2/4 159/2/4 165/2/4
f 165/2/4 160/2/4 166/2/4
f 160/3/4 153/3/4 167/3/4
f 166/2/4 160/2/4 167/2/4
f 153/1/4 108/1/4 168/1/4
f 167/3/4 153/3/4 168/3/4
f 162/3/4 155/3/4 169/3/4
f 161/2/4 162/2/4 169/2/4
f 155/2/4 156/2/4 170/2/4
f 169/3/4 155/3/4 170/3/4
f 170/2/4 156/2/4 171/2/4
f 156/3/4 163/3/4 172/3/4
f 171/2/4 156/2/4 172/2/4
f 163/3/4 164/3/4 172/3/4
f 165/2/4 166/2/4 173/2/4
f 172/3/4 164/3/4 173/3/4
f 164/2/4 165/2/4 173/2/4
f 173/2/4 166/2/4 174/2/4
f 161/2/4 169/2/4 175/2/4
f 169/2/4 170/2/4 175/2/4
f 170/3/4 171/3/4 176/3/4
f 175/2/4 170/2/4 176/2/4
f 171/2/4 172/2/4 177/2/4
f 176/3/4 171/3/4 177/3/4
f 172/2/4 173/2/4 177/2/4
f 177/2/4 173/2/4 178/2/4
f 161/2/4 175/2/4 179/2/4
f 107/1/4 161/1/4 179/1/4
f 175/3/4 176/3/4 180/3/4
f 179/2/4 175/2/4 180/2/4
f 177/3/4 178/3/4 180/3/4
f 176/3/4 177/3/4 180/3/4
f 180/3/4 178/3/4 181/3/4
f 178/2/4 173/2/4 182/2/4
f 181/3/4 178/3/4 182/3/4
f 174/2/4 166/2/4 183/2/4
f 173/3/4 174/3/4 183/3/4
f 166/3/4 167/3/4 184/3/4
f 183/2/4 166/2/4 184/2/4
f 167/2/4 168/2/4 185/2/4
f 184/3/4 167/3/4 185/3/4
f 180/3/4 181/3/4 186/3/4
f 179/3/4 180/3/4 186/3/4
f 181/2/4 182/2/4 187/2/4
f 186/3/4 181/3/4 187/3/4
f 182/2/4 173/2/4 188/2/4
f 187/2/4 182/2/4 188/2/4
f 188/2/4 173/2/4 189/2/4
f 173/3/4 183/3/4 190/3/4
f 189/2/4 173/2/4 190/2/4
f 183/3/4 184/3/4 190/3/4
f 190/3/4 184/3/4 191/3/4
f 179/3/4 186/3/4 192/3/4
f 186/2/4 187/2/4 193/2/4
f 192/3/4 186/3/4 193/3/4
f 188/2/4 189/2/4 194/2/4
f 189/3/4 190/3/4 194/3/4
f 190/2/4 191/2/4 195/2/4
f 194/3/4 190/3/4 195/3/4
f 179/3/4 192/3/4 196/3/4
f 107/1/4 179/1/4 196/1/4
f 192/2/4 193/2/4 197/2/4
f 196/3/4 192/3/4 197/3/4
f 193/2/4 187/2/4 198/2/4
f 197/2/4 193/2/4 198/2/4
f 187/3/4 188/3/4 198/3/4
f 188/2/4 194/2/4 199/2/4
f 198/3/4 188/3/4 199/3/4
f 194/2/4 195/2/4 199/2/4
f 195/2/4 191/2/4 200/2/4
f 199/2/4 195/2/4 200/2/4
f 191/3/4 184/3/4 200/3/4
f 184/2/4 185/2/4 201/2/4
f 200/3/4 184/3/4 201/3/4
f 185/2/4 168/2/4 202/2/4
f 201/2/4 185/2/4 202/2/4
f 168/1/4 108/1/4 202/1/4
f 200/1/4 201/1/4 203/1/4
f 196/1/4 197/1/4 203/1/4
f 201/1/4 202/1/4 203/1/4
f 107/1/4 196/1/4 203/1/4
f 197/1/4 198/1/4 203/1/4
f 198/1/4 199/1/4 203/1/4
f 199/1/4 200/1/4 203/1/4
f 202/1/4 108/1/4 204/1/4
f 203/1/4 202/1/4 204/1/4
f 207/1/5 206/1/5 205/1/5
f 208/1/5 206/1/5 207/1/5
f 209/1/6 210/1/6 211/1/6
f 211/1/6 210/1/6 212/1/6
