# MagicaVoxel @ Ephtracy

# group
o 

# material
mtllib ScreenOn.mtl
usemtl palette

# normals
vn -1 0 0
vn 1 0 0
vn 0 0 1
vn 0 0 -1
vn 0 -1 0
vn 0 1 0

# texcoords
vt 0.0214844 0.5
vt 0.404297 0.5
vt 0.423828 0.5
vt 0.841797 0.5
vt 0.888672 0.5
vt 0.919922 0.5
vt 0.958984 0.5
vt 0.962891 0.5
vt 0.986328 0.5
vt 0.994141 0.5

# verts
v -0.8 -0.4 0.7
v -0.8 -0.4 0.6
v -0.8 0.8 0.7
v -0.8 0.8 0.6
v 0.8 -0.4 0.7
v 0.8 -0.4 0.6
v 0.8 0.8 0.7
v 0.8 0.8 0.6
v -0.8 -0.4 0.7
v -0.8 0.8 0.7
v -0.7 -0.3 0.7
v -0.7 -0.2 0.7
v -0.7 0.7 0.7
v -0.5 -0.3 0.7
v -0.5 -0.2 0.7
v -0.5 0.7 0.7
v -0.3 -0.3 0.7
v -0.3 -0.2 0.7
v -0.3 0.7 0.7
v -0.1 -0.3 0.7
v -0.1 -0.2 0.7
v -0.1 0.7 0.7
v 0.1 -0.3 0.7
v 0.1 -0.2 0.7
v 0.1 0.7 0.7
v 0.3 -0.3 0.7
v 0.3 -0.2 0.7
v 0.3 0.7 0.7
v 0.5 -0.3 0.7
v 0.5 -0.2 0.7
v 0.5 0.7 0.7
v 0.7 -0.3 0.7
v 0.7 -0.2 0.7
v 0.7 0.7 0.7
v 0.8 -0.4 0.7
v 0.8 0.8 0.7
v -0.8 -0.4 0.6
v -0.8 0.8 0.6
v -0.7 -0.3 0.6
v -0.7 -0.2 0.6
v -0.7 0.7 0.6
v -0.5 -0.3 0.6
v -0.5 -0.2 0.6
v -0.5 0.7 0.6
v -0.3 -0.3 0.6
v -0.3 -0.2 0.6
v -0.3 0.7 0.6
v -0.1 -0.3 0.6
v -0.1 -0.2 0.6
v -0.1 0.7 0.6
v 0.1 -0.3 0.6
v 0.1 -0.2 0.6
v 0.1 0.7 0.6
v 0.3 -0.3 0.6
v 0.3 -0.2 0.6
v 0.3 0.7 0.6
v 0.5 -0.3 0.6
v 0.5 -0.2 0.6
v 0.5 0.7 0.6
v 0.7 -0.3 0.6
v 0.7 -0.2 0.6
v 0.7 0.7 0.6
v 0.8 -0.4 0.6
v 0.8 0.8 0.6
v -0.8 -0.4 0.7
v 0.8 -0.4 0.7
v -0.8 -0.4 0.6
v 0.8 -0.4 0.6
v -0.8 0.8 0.7
v 0.8 0.8 0.7
v -0.8 0.8 0.6
v 0.8 0.8 0.6

# faces
f 3/9/1 2/9/1 1/9/1
f 4/9/1 2/9/1 3/9/1
f 5/9/2 6/9/2 7/9/2
f 7/9/2 6/9/2 8/9/2
f 11/9/3 10/9/3 9/9/3
f 12/9/3 10/9/3 11/9/3
f 13/9/3 10/9/3 12/9/3
f 14/9/3 11/9/3 9/9/3
f 14/6/3 12/6/3 11/6/3
f 15/8/3 13/8/3 12/8/3
f 15/6/3 12/6/3 14/6/3
f 16/9/3 10/9/3 13/9/3
f 16/8/3 13/8/3 15/8/3
f 17/10/3 15/10/3 14/10/3
f 17/9/3 14/9/3 9/9/3
f 18/1/3 16/1/3 15/1/3
f 18/10/3 15/10/3 17/10/3
f 19/9/3 10/9/3 16/9/3
f 19/1/3 16/1/3 18/1/3
f 20/2/3 18/2/3 17/2/3
f 20/9/3 17/9/3 9/9/3
f 21/3/3 19/3/3 18/3/3
f 21/2/3 18/2/3 20/2/3
f 22/9/3 10/9/3 19/9/3
f 22/3/3 19/3/3 21/3/3
f 23/10/3 21/10/3 20/10/3
f 23/9/3 20/9/3 9/9/3
f 24/5/3 22/5/3 21/5/3
f 24/10/3 21/10/3 23/10/3
f 25/9/3 10/9/3 22/9/3
f 25/5/3 22/5/3 24/5/3
f 26/3/3 24/3/3 23/3/3
f 26/9/3 23/9/3 9/9/3
f 27/2/3 25/2/3 24/2/3
f 27/3/3 24/3/3 26/3/3
f 28/9/3 10/9/3 25/9/3
f 28/2/3 25/2/3 27/2/3
f 29/10/3 27/10/3 26/10/3
f 29/9/3 26/9/3 9/9/3
f 30/4/3 28/4/3 27/4/3
f 30/10/3 27/10/3 29/10/3
f 31/9/3 10/9/3 28/9/3
f 31/4/3 28/4/3 30/4/3
f 32/7/3 30/7/3 29/7/3
f 32/9/3 29/9/3 9/9/3
f 33/6/3 31/6/3 30/6/3
f 33/7/3 30/7/3 32/7/3
f 34/9/3 10/9/3 31/9/3
f 34/6/3 31/6/3 33/6/3
f 35/9/3 33/9/3 32/9/3
f 35/9/3 32/9/3 9/9/3
f 35/9/3 34/9/3 33/9/3
f 36/9/3 10/9/3 34/9/3
f 36/9/3 34/9/3 35/9/3
f 37/9/4 38/9/4 39/9/4
f 39/9/4 38/9/4 40/9/4
f 40/9/4 38/9/4 41/9/4
f 37/9/4 39/9/4 42/9/4
f 39/6/4 40/6/4 42/6/4
f 40/8/4 41/8/4 43/8/4
f 42/6/4 40/6/4 43/6/4
f 41/9/4 38/9/4 44/9/4
f 43/8/4 41/8/4 44/8/4
f 42/10/4 43/10/4 45/10/4
f 37/9/4 42/9/4 45/9/4
f 43/1/4 44/1/4 46/1/4
f 45/10/4 43/10/4 46/10/4
f 44/9/4 38/9/4 47/9/4
f 46/1/4 44/1/4 47/1/4
f 45/2/4 46/2/4 48/2/4
f 37/9/4 45/9/4 48/9/4
f 46/3/4 47/3/4 49/3/4
f 48/2/4 46/2/4 49/2/4
f 47/9/4 38/9/4 50/9/4
f 49/3/4 47/3/4 50/3/4
f 48/10/4 49/10/4 51/10/4
f 37/9/4 48/9/4 51/9/4
f 49/5/4 50/5/4 52/5/4
f 51/10/4 49/10/4 52/10/4
f 50/9/4 38/9/4 53/9/4
f 52/5/4 50/5/4 53/5/4
f 51/3/4 52/3/4 54/3/4
f 37/9/4 51/9/4 54/9/4
f 52/2/4 53/2/4 55/2/4
f 54/3/4 52/3/4 55/3/4
f 53/9/4 38/9/4 56/9/4
f 55/2/4 53/2/4 56/2/4
f 54/10/4 55/10/4 57/10/4
f 37/9/4 54/9/4 57/9/4
f 55/4/4 56/4/4 58/4/4
f 57/10/4 55/10/4 58/10/4
f 56/9/4 38/9/4 59/9/4
f 58/4/4 56/4/4 59/4/4
f 57/7/4 58/7/4 60/7/4
f 37/9/4 57/9/4 60/9/4
f 58/6/4 59/6/4 61/6/4
f 60/7/4 58/7/4 61/7/4
f 59/9/4 38/9/4 62/9/4
f 61/6/4 59/6/4 62/6/4
f 60/9/4 61/9/4 63/9/4
f 37/9/4 60/9/4 63/9/4
f 61/9/4 62/9/4 63/9/4
f 62/9/4 38/9/4 64/9/4
f 63/9/4 62/9/4 64/9/4
f 67/9/5 66/9/5 65/9/5
f 68/9/5 66/9/5 67/9/5
f 69/9/6 70/9/6 71/9/6
f 71/9/6 70/9/6 72/9/6
