# MagicaVoxel @ Ephtracy

# group
o 

# material
mtllib BlockBlueC.mtl
usemtl palette

# normals
vn -1 0 0
vn 1 0 0
vn 0 0 1
vn 0 0 -1
vn 0 -1 0
vn 0 1 0

# texcoords
vt 0.919922 0.5
vt 0.962891 0.5
vt 0.994141 0.5

# verts
v -0.5 -0.5 0.5
v -0.5 -0.5 -0.5
v -0.5 -0.4 0.4
v -0.5 -0.4 -0.4
v -0.5 -0.3 0.2
v -0.5 -0.3 -0.2
v -0.5 -0.2 0.3
v -0.5 -0.2 0.2
v -0.5 -0.2 -0.2
v -0.5 -0.2 -0.3
v -0.5 -0.1 0.3
v -0.5 -0.1 0.2
v -0.5 0.1 0.3
v -0.5 0.1 0.2
v -0.5 0.2 0.3
v -0.5 0.2 0.2
v -0.5 0.2 -0.2
v -0.5 0.2 -0.3
v -0.5 0.3 0.2
v -0.5 0.3 -0.2
v -0.5 0.4 0.4
v -0.5 0.4 -0.4
v -0.5 0.5 0.5
v -0.5 0.5 -0.5
v 0.5 -0.5 0.5
v 0.5 -0.5 -0.5
v 0.5 -0.4 0.4
v 0.5 -0.4 -0.4
v 0.5 -0.3 0.2
v 0.5 -0.3 -0.2
v 0.5 -0.2 0.3
v 0.5 -0.2 0.2
v 0.5 -0.2 -0.2
v 0.5 -0.2 -0.3
v 0.5 -0.1 -0.2
v 0.5 -0.1 -0.3
v 0.5 0.1 -0.2
v 0.5 0.1 -0.3
v 0.5 0.2 0.3
v 0.5 0.2 0.2
v 0.5 0.2 -0.2
v 0.5 0.2 -0.3
v 0.5 0.3 0.2
v 0.5 0.3 -0.2
v 0.5 0.4 0.4
v 0.5 0.4 -0.4
v 0.5 0.5 0.5
v 0.5 0.5 -0.5
v -0.5 -0.5 0.5
v -0.5 0.5 0.5
v -0.4 -0.4 0.5
v -0.4 0.4 0.5
v -0.3 -0.2 0.5
v -0.3 0.2 0.5
v -0.2 -0.3 0.5
v -0.2 -0.2 0.5
v -0.2 0.2 0.5
v -0.2 0.3 0.5
v 0.2 -0.3 0.5
v 0.2 -0.2 0.5
v 0.2 -0.1 0.5
v 0.2 0.1 0.5
v 0.2 0.2 0.5
v 0.2 0.3 0.5
v 0.3 -0.2 0.5
v 0.3 -0.1 0.5
v 0.3 0.1 0.5
v 0.3 0.2 0.5
v 0.4 -0.4 0.5
v 0.4 0.4 0.5
v 0.5 -0.5 0.5
v 0.5 0.5 0.5
v -0.5 -0.5 -0.5
v -0.5 0.5 -0.5
v -0.4 -0.4 -0.5
v -0.4 0.4 -0.5
v -0.3 -0.2 -0.5
v -0.3 -0.1 -0.5
v -0.3 0.1 -0.5
v -0.3 0.2 -0.5
v -0.2 -0.3 -0.5
v -0.2 -0.2 -0.5
v -0.2 -0.1 -0.5
v -0.2 0.1 -0.5
v -0.2 0.2 -0.5
v -0.2 0.3 -0.5
v 0.2 -0.3 -0.5
v 0.2 -0.2 -0.5
v 0.2 0.2 -0.5
v 0.2 0.3 -0.5
v 0.3 -0.2 -0.5
v 0.3 0.2 -0.5
v 0.4 -0.4 -0.5
v 0.4 0.4 -0.5
v 0.5 -0.5 -0.5
v 0.5 0.5 -0.5
v -0.5 -0.5 0.5
v 0.5 -0.5 0.5
v -0.4 -0.5 0.4
v 0.4 -0.5 0.4
v -0.2 -0.5 0.3
v 0.2 -0.5 0.3
v -0.3 -0.5 0.2
v -0.2 -0.5 0.2
v 0.2 -0.5 0.2
v 0.3 -0.5 0.2
v 0.2 -0.5 0.1
v 0.3 -0.5 0.1
v 0.2 -0.5 -0.1
v 0.3 -0.5 -0.1
v -0.3 -0.5 -0.2
v -0.2 -0.5 -0.2
v 0.2 -0.5 -0.2
v 0.3 -0.5 -0.2
v -0.2 -0.5 -0.3
v 0.2 -0.5 -0.3
v -0.4 -0.5 -0.4
v 0.4 -0.5 -0.4
v -0.5 -0.5 -0.5
v 0.5 -0.5 -0.5
v -0.5 0.5 0.5
v 0.5 0.5 0.5
v -0.4 0.5 0.4
v 0.4 0.5 0.4
v -0.2 0.5 0.3
v 0.2 0.5 0.3
v -0.3 0.5 0.2
v -0.2 0.5 0.2
v 0.2 0.5 0.2
v 0.3 0.5 0.2
v 0.2 0.5 0.1
v 0.3 0.5 0.1
v 0.2 0.5 -0.1
v 0.3 0.5 -0.1
v -0.3 0.5 -0.2
v -0.2 0.5 -0.2
v 0.2 0.5 -0.2
v 0.3 0.5 -0.2
v -0.2 0.5 -0.3
v 0.2 0.5 -0.3
v -0.4 0.5 -0.4
v 0.4 0.5 -0.4
v -0.5 0.5 -0.5
v 0.5 0.5 -0.5

# faces
f 3/3/1 2/3/1 1/3/1
f 4/3/1 2/3/1 3/3/1
f 5/1/1 4/1/1 3/1/1
f 6/1/1 4/1/1 5/1/1
f 7/1/1 5/1/1 3/1/1
f 8/3/1 6/3/1 5/3/1
f 8/1/1 5/1/1 7/1/1
f 9/1/1 4/1/1 6/1/1
f 9/3/1 6/3/1 8/3/1
f 10/1/1 4/1/1 9/1/1
f 11/3/1 8/3/1 7/3/1
f 11/1/1 7/1/1 3/1/1
f 12/1/1 9/1/1 8/1/1
f 12/3/1 8/3/1 11/3/1
f 13/1/1 11/1/1 3/1/1
f 13/1/1 12/1/1 11/1/1
f 14/1/1 9/1/1 12/1/1
f 14/1/1 12/1/1 13/1/1
f 15/1/1 13/1/1 3/1/1
f 15/3/1 14/3/1 13/3/1
f 16/1/1 9/1/1 14/1/1
f 16/3/1 14/3/1 15/3/1
f 17/3/1 10/3/1 9/3/1
f 17/1/1 9/1/1 16/1/1
f 18/1/1 4/1/1 10/1/1
f 18/3/1 10/3/1 17/3/1
f 19/3/1 17/3/1 16/3/1
f 19/1/1 16/1/1 15/1/1
f 20/1/1 18/1/1 17/1/1
f 20/3/1 17/3/1 19/3/1
f 21/3/1 3/3/1 1/3/1
f 21/1/1 19/1/1 15/1/1
f 21/1/1 20/1/1 19/1/1
f 21/1/1 15/1/1 3/1/1
f 22/1/1 18/1/1 20/1/1
f 22/1/1 20/1/1 21/1/1
f 22/3/1 2/3/1 4/3/1
f 22/1/1 4/1/1 18/1/1
f 23/3/1 21/3/1 1/3/1
f 23/3/1 22/3/1 21/3/1
f 24/3/1 2/3/1 22/3/1
f 24/3/1 22/3/1 23/3/1
f 25/3/2 26/3/2 27/3/2
f 27/3/2 26/3/2 28/3/2
f 27/1/2 28/1/2 29/1/2
f 29/1/2 28/1/2 30/1/2
f 27/1/2 29/1/2 31/1/2
f 29/3/2 30/3/2 32/3/2
f 31/1/2 29/1/2 32/1/2
f 30/1/2 28/1/2 33/1/2
f 32/3/2 30/3/2 33/3/2
f 33/1/2 28/1/2 34/1/2
f 32/1/2 33/1/2 35/1/2
f 33/3/2 34/3/2 35/3/2
f 34/1/2 28/1/2 36/1/2
f 35/3/2 34/3/2 36/3/2
f 32/1/2 35/1/2 37/1/2
f 35/1/2 36/1/2 37/1/2
f 36/1/2 28/1/2 38/1/2
f 37/1/2 36/1/2 38/1/2
f 31/3/2 32/3/2 39/3/2
f 27/1/2 31/1/2 39/1/2
f 32/1/2 37/1/2 40/1/2
f 39/3/2 32/3/2 40/3/2
f 37/3/2 38/3/2 41/3/2
f 40/1/2 37/1/2 41/1/2
f 38/1/2 28/1/2 42/1/2
f 41/3/2 38/3/2 42/3/2
f 40/3/2 41/3/2 43/3/2
f 39/1/2 40/1/2 43/1/2
f 41/1/2 42/1/2 44/1/2
f 43/3/2 41/3/2 44/3/2
f 25/3/2 27/3/2 45/3/2
f 39/1/2 43/1/2 45/1/2
f 43/1/2 44/1/2 45/1/2
f 27/1/2 39/1/2 45/1/2
f 44/1/2 42/1/2 46/1/2
f 45/1/2 44/1/2 46/1/2
f 28/3/2 26/3/2 46/3/2
f 42/1/2 28/1/2 46/1/2
f 25/3/2 45/3/2 47/3/2
f 45/3/2 46/3/2 47/3/2
f 46/3/2 26/3/2 48/3/2
f 47/3/2 46/3/2 48/3/2
f 51/3/3 50/3/3 49/3/3
f 52/3/3 50/3/3 51/3/3
f 53/1/3 52/1/3 51/1/3
f 54/1/3 52/1/3 53/1/3
f 55/1/3 53/1/3 51/1/3
f 56/3/3 54/3/3 53/3/3
f 56/1/3 53/1/3 55/1/3
f 57/1/3 52/1/3 54/1/3
f 57/3/3 54/3/3 56/3/3
f 58/1/3 52/1/3 57/1/3
f 59/3/3 56/3/3 55/3/3
f 59/1/3 55/1/3 51/1/3
f 60/1/3 57/1/3 56/1/3
f 60/3/3 56/3/3 59/3/3
f 61/1/3 57/1/3 60/1/3
f 62/1/3 57/1/3 61/1/3
f 63/3/3 58/3/3 57/3/3
f 63/1/3 57/1/3 62/1/3
f 64/1/3 52/1/3 58/1/3
f 64/3/3 58/3/3 63/3/3
f 65/1/3 60/1/3 59/1/3
f 65/3/3 61/3/3 60/3/3
f 66/1/3 62/1/3 61/1/3
f 66/3/3 61/3/3 65/3/3
f 67/3/3 63/3/3 62/3/3
f 67/1/3 62/1/3 66/1/3
f 68/1/3 64/1/3 63/1/3
f 68/3/3 63/3/3 67/3/3
f 69/3/3 51/3/3 49/3/3
f 69/1/3 66/1/3 65/1/3
f 69/1/3 68/1/3 67/1/3
f 69/1/3 67/1/3 66/1/3
f 69/1/3 65/1/3 59/1/3
f 69/1/3 59/1/3 51/1/3
f 70/1/3 64/1/3 68/1/3
f 70/1/3 68/1/3 69/1/3
f 70/3/3 50/3/3 52/3/3
f 70/1/3 52/1/3 64/1/3
f 71/3/3 69/3/3 49/3/3
f 71/3/3 70/3/3 69/3/3
f 72/3/3 50/3/3 70/3/3
f 72/3/3 70/3/3 71/3/3
f 73/3/4 74/3/4 75/3/4
f 75/3/4 74/3/4 76/3/4
f 75/1/4 76/1/4 77/1/4
f 77/1/4 76/1/4 78/1/4
f 78/1/4 76/1/4 79/1/4
f 79/1/4 76/1/4 80/1/4
f 75/1/4 77/1/4 81/1/4
f 77/3/4 78/3/4 82/3/4
f 81/1/4 77/1/4 82/1/4
f 78/1/4 79/1/4 83/1/4
f 82/3/4 78/3/4 83/3/4
f 79/3/4 80/3/4 84/3/4
f 83/1/4 79/1/4 84/1/4
f 80/1/4 76/1/4 85/1/4
f 84/3/4 80/3/4 85/3/4
f 85/1/4 76/1/4 86/1/4
f 75/1/4 81/1/4 87/1/4
f 81/3/4 82/3/4 87/3/4
f 83/1/4 84/1/4 88/1/4
f 87/3/4 82/3/4 88/3/4
f 82/1/4 83/1/4 88/1/4
f 84/1/4 85/1/4 88/1/4
f 85/3/4 86/3/4 89/3/4
f 88/1/4 85/1/4 89/1/4
f 86/1/4 76/1/4 90/1/4
f 89/3/4 86/3/4 90/3/4
f 88/3/4 89/3/4 91/3/4
f 87/1/4 88/1/4 91/1/4
f 89/1/4 90/1/4 92/1/4
f 91/3/4 89/3/4 92/3/4
f 73/3/4 75/3/4 93/3/4
f 75/1/4 87/1/4 93/1/4
f 91/1/4 92/1/4 93/1/4
f 87/1/4 91/1/4 93/1/4
f 92/1/4 90/1/4 94/1/4
f 93/1/4 92/1/4 94/1/4
f 76/3/4 74/3/4 94/3/4
f 90/1/4 76/1/4 94/1/4
f 73/3/4 93/3/4 95/3/4
f 93/3/4 94/3/4 95/3/4
f 94/3/4 74/3/4 96/3/4
f 95/3/4 94/3/4 96/3/4
f 99/3/5 98/3/5 97/3/5
f 100/3/5 98/3/5 99/3/5
f 101/1/5 100/1/5 99/1/5
f 102/1/5 100/1/5 101/1/5
f 103/1/5 101/1/5 99/1/5
f 104/3/5 102/3/5 101/3/5
f 104/1/5 101/1/5 103/1/5
f 105/1/5 100/1/5 102/1/5
f 105/3/5 102/3/5 104/3/5
f 106/1/5 100/1/5 105/1/5
f 107/1/5 105/1/5 104/1/5
f 107/3/5 106/3/5 105/3/5
f 108/1/5 100/1/5 106/1/5
f 108/3/5 106/3/5 107/3/5
f 109/1/5 107/1/5 104/1/5
f 109/1/5 108/1/5 107/1/5
f 110/1/5 100/1/5 108/1/5
f 110/1/5 108/1/5 109/1/5
f 111/3/5 104/3/5 103/3/5
f 111/1/5 103/1/5 99/1/5
f 112/1/5 109/1/5 104/1/5
f 112/3/5 104/3/5 111/3/5
f 113/3/5 110/3/5 109/3/5
f 113/1/5 109/1/5 112/1/5
f 114/1/5 100/1/5 110/1/5
f 114/3/5 110/3/5 113/3/5
f 115/3/5 113/3/5 112/3/5
f 115/1/5 112/1/5 111/1/5
f 116/1/5 114/1/5 113/1/5
f 116/3/5 113/3/5 115/3/5
f 117/3/5 99/3/5 97/3/5
f 117/1/5 115/1/5 111/1/5
f 117/1/5 116/1/5 115/1/5
f 117/1/5 111/1/5 99/1/5
f 118/1/5 114/1/5 116/1/5
f 118/1/5 116/1/5 117/1/5
f 118/3/5 98/3/5 100/3/5
f 118/1/5 100/1/5 114/1/5
f 119/3/5 117/3/5 97/3/5
f 119/3/5 118/3/5 117/3/5
f 120/3/5 98/3/5 118/3/5
f 120/3/5 118/3/5 119/3/5
f 121/3/6 122/3/6 123/3/6
f 123/3/6 122/3/6 124/3/6
f 123/1/6 124/1/6 125/1/6
f 125/1/6 124/1/6 126/1/6
f 123/1/6 125/1/6 127/1/6
f 125/3/6 126/3/6 128/3/6
f 127/1/6 125/1/6 128/1/6
f 126/1/6 124/1/6 129/1/6
f 128/3/6 126/3/6 129/3/6
f 129/1/6 124/1/6 130/1/6
f 128/1/6 129/1/6 131/1/6
f 129/3/6 130/3/6 131/3/6
f 130/1/6 124/1/6 132/1/6
f 131/3/6 130/3/6 132/3/6
f 128/1/6 131/1/6 133/1/6
f 131/1/6 132/1/6 133/1/6
f 132/1/6 124/1/6 134/1/6
f 133/1/6 132/1/6 134/1/6
f 127/3/6 128/3/6 135/3/6
f 123/1/6 127/1/6 135/1/6
f 128/1/6 133/1/6 136/1/6
f 135/3/6 128/3/6 136/3/6
f 133/3/6 134/3/6 137/3/6
f 136/1/6 133/1/6 137/1/6
f 134/1/6 124/1/6 138/1/6
f 137/3/6 134/3/6 138/3/6
f 136/3/6 137/3/6 139/3/6
f 135/1/6 136/1/6 139/1/6
f 137/1/6 138/1/6 140/1/6
f 139/3/6 137/3/6 140/3/6
f 121/3/6 123/3/6 141/3/6
f 135/1/6 139/1/6 141/1/6
f 139/1/6 140/1/6 141/1/6
f 123/1/6 135/1/6 141/1/6
f 140/1/6 138/1/6 142/1/6
f 141/1/6 140/1/6 142/1/6
f 124/3/6 122/3/6 142/3/6
f 138/1/6 124/1/6 142/1/6
f 121/3/6 141/3/6 143/3/6
f 141/3/6 142/3/6 143/3/6
f 142/3/6 122/3/6 144/3/6
f 143/3/6 142/3/6 144/3/6
