# MagicaVoxel @ Ephtracy

# group
o 

# material
mtllib BlockPurpleD.mtl
usemtl palette

# normals
vn -1 0 0
vn 1 0 0
vn 0 0 1
vn 0 0 -1
vn 0 -1 0
vn 0 1 0

# texcoords
vt 0.404297 0.5
vt 0.962891 0.5
vt 0.994141 0.5

# verts
v -0.5 -0.5 0.5
v -0.5 -0.5 -0.5
v -0.5 -0.4 0.4
v -0.5 -0.4 -0.4
v -0.5 -0.3 0.2
v -0.5 -0.3 -0.3
v -0.5 -0.2 0.3
v -0.5 -0.2 0.2
v -0.5 -0.2 -0.2
v -0.5 0.2 0.3
v -0.5 0.2 0.2
v -0.5 0.2 -0.2
v -0.5 0.3 0.2
v -0.5 0.3 -0.3
v -0.5 0.4 0.4
v -0.5 0.4 -0.4
v -0.5 0.5 0.5
v -0.5 0.5 -0.5
v 0.5 -0.5 0.5
v 0.5 -0.5 -0.5
v 0.5 -0.4 0.4
v 0.5 -0.4 -0.4
v 0.5 -0.3 0.3
v 0.5 -0.3 -0.2
v 0.5 -0.2 0.2
v 0.5 -0.2 -0.2
v 0.5 -0.2 -0.3
v 0.5 0.2 0.2
v 0.5 0.2 -0.2
v 0.5 0.2 -0.3
v 0.5 0.3 0.3
v 0.5 0.3 -0.2
v 0.5 0.4 0.4
v 0.5 0.4 -0.4
v 0.5 0.5 0.5
v 0.5 0.5 -0.5
v -0.5 -0.5 0.5
v -0.5 0.5 0.5
v -0.4 -0.4 0.5
v -0.4 0.4 0.5
v -0.3 -0.3 0.5
v -0.3 0.3 0.5
v -0.2 -0.2 0.5
v -0.2 0.2 0.5
v 0.2 -0.3 0.5
v 0.2 -0.2 0.5
v 0.2 0.2 0.5
v 0.2 0.3 0.5
v 0.3 -0.2 0.5
v 0.3 0.2 0.5
v 0.4 -0.4 0.5
v 0.4 0.4 0.5
v 0.5 -0.5 0.5
v 0.5 0.5 0.5
v -0.5 -0.5 -0.5
v -0.5 0.5 -0.5
v -0.4 -0.4 -0.5
v -0.4 0.4 -0.5
v -0.3 -0.2 -0.5
v -0.3 0.2 -0.5
v -0.2 -0.3 -0.5
v -0.2 -0.2 -0.5
v -0.2 0.2 -0.5
v -0.2 0.3 -0.5
v 0.2 -0.2 -0.5
v 0.2 0.2 -0.5
v 0.3 -0.3 -0.5
v 0.3 0.3 -0.5
v 0.4 -0.4 -0.5
v 0.4 0.4 -0.5
v 0.5 -0.5 -0.5
v 0.5 0.5 -0.5
v -0.5 -0.5 0.5
v 0.5 -0.5 0.5
v -0.4 -0.5 0.4
v 0.4 -0.5 0.4
v -0.3 -0.5 0.3
v 0.2 -0.5 0.3
v -0.2 -0.5 0.2
v 0.2 -0.5 0.2
v 0.3 -0.5 0.2
v -0.2 -0.5 -0.2
v 0.2 -0.5 -0.2
v 0.3 -0.5 -0.2
v -0.3 -0.5 -0.3
v 0.2 -0.5 -0.3
v -0.4 -0.5 -0.4
v 0.4 -0.5 -0.4
v -0.5 -0.5 -0.5
v 0.5 -0.5 -0.5
v -0.5 0.5 0.5
v 0.5 0.5 0.5
v -0.4 0.5 0.4
v 0.4 0.5 0.4
v -0.3 0.5 0.3
v 0.2 0.5 0.3
v -0.2 0.5 0.2
v 0.2 0.5 0.2
v 0.3 0.5 0.2
v -0.2 0.5 -0.2
v 0.2 0.5 -0.2
v 0.3 0.5 -0.2
v -0.3 0.5 -0.3
v 0.2 0.5 -0.3
v -0.4 0.5 -0.4
v 0.4 0.5 -0.4
v -0.5 0.5 -0.5
v 0.5 0.5 -0.5

# faces
f 3/3/1 2/3/1 1/3/1
f 4/3/1 2/3/1 3/3/1
f 5/1/1 4/1/1 3/1/1
f 6/1/1 4/1/1 5/1/1
f 7/1/1 5/1/1 3/1/1
f 8/3/1 6/3/1 5/3/1
f 8/1/1 5/1/1 7/1/1
f 9/3/1 6/3/1 8/3/1
f 10/1/1 7/1/1 3/1/1
f 10/3/1 8/3/1 7/3/1
f 11/1/1 9/1/1 8/1/1
f 11/3/1 8/3/1 10/3/1
f 12/3/1 6/3/1 9/3/1
f 12/1/1 9/1/1 11/1/1
f 13/1/1 11/1/1 10/1/1
f 13/3/1 12/3/1 11/3/1
f 14/1/1 4/1/1 6/1/1
f 14/3/1 12/3/1 13/3/1
f 14/3/1 6/3/1 12/3/1
f 15/3/1 3/3/1 1/3/1
f 15/1/1 13/1/1 10/1/1
f 15/1/1 14/1/1 13/1/1
f 15/1/1 10/1/1 3/1/1
f 16/1/1 4/1/1 14/1/1
f 16/1/1 14/1/1 15/1/1
f 16/3/1 2/3/1 4/3/1
f 17/3/1 15/3/1 1/3/1
f 17/3/1 16/3/1 15/3/1
f 18/3/1 2/3/1 16/3/1
f 18/3/1 16/3/1 17/3/1
f 19/3/2 20/3/2 21/3/2
f 21/3/2 20/3/2 22/3/2
f 21/1/2 22/1/2 23/1/2
f 23/1/2 22/1/2 24/1/2
f 23/3/2 24/3/2 25/3/2
f 24/1/2 22/1/2 26/1/2
f 25/3/2 24/3/2 26/3/2
f 26/1/2 22/1/2 27/1/2
f 23/3/2 25/3/2 28/3/2
f 25/1/2 26/1/2 28/1/2
f 26/3/2 27/3/2 29/3/2
f 28/1/2 26/1/2 29/1/2
f 27/1/2 22/1/2 30/1/2
f 29/3/2 27/3/2 30/3/2
f 21/1/2 23/1/2 31/1/2
f 28/3/2 29/3/2 31/3/2
f 23/3/2 28/3/2 31/3/2
f 29/1/2 30/1/2 32/1/2
f 31/3/2 29/3/2 32/3/2
f 19/3/2 21/3/2 33/3/2
f 21/1/2 31/1/2 33/1/2
f 31/1/2 32/1/2 33/1/2
f 32/1/2 30/1/2 34/1/2
f 33/1/2 32/1/2 34/1/2
f 22/3/2 20/3/2 34/3/2
f 30/1/2 22/1/2 34/1/2
f 19/3/2 33/3/2 35/3/2
f 33/3/2 34/3/2 35/3/2
f 34/3/2 20/3/2 36/3/2
f 35/3/2 34/3/2 36/3/2
f 39/3/3 38/3/3 37/3/3
f 40/3/3 38/3/3 39/3/3
f 41/1/3 40/1/3 39/1/3
f 42/1/3 40/1/3 41/1/3
f 43/3/3 42/3/3 41/3/3
f 44/3/3 42/3/3 43/3/3
f 45/1/3 41/1/3 39/1/3
f 45/3/3 43/3/3 41/3/3
f 46/1/3 44/1/3 43/1/3
f 46/3/3 43/3/3 45/3/3
f 47/3/3 42/3/3 44/3/3
f 47/1/3 44/1/3 46/1/3
f 48/1/3 40/1/3 42/1/3
f 48/3/3 42/3/3 47/3/3
f 49/1/3 46/1/3 45/1/3
f 49/3/3 47/3/3 46/3/3
f 50/1/3 48/1/3 47/1/3
f 50/3/3 47/3/3 49/3/3
f 51/3/3 39/3/3 37/3/3
f 51/1/3 49/1/3 45/1/3
f 51/1/3 50/1/3 49/1/3
f 51/1/3 45/1/3 39/1/3
f 52/1/3 48/1/3 50/1/3
f 52/1/3 50/1/3 51/1/3
f 52/3/3 38/3/3 40/3/3
f 52/1/3 40/1/3 48/1/3
f 53/3/3 51/3/3 37/3/3
f 53/3/3 52/3/3 51/3/3
f 54/3/3 38/3/3 52/3/3
f 54/3/3 52/3/3 53/3/3
f 55/3/4 56/3/4 57/3/4
f 57/3/4 56/3/4 58/3/4
f 57/1/4 58/1/4 59/1/4
f 59/1/4 58/1/4 60/1/4
f 57/1/4 59/1/4 61/1/4
f 59/3/4 60/3/4 62/3/4
f 61/1/4 59/1/4 62/1/4
f 60/1/4 58/1/4 63/1/4
f 62/3/4 60/3/4 63/3/4
f 63/1/4 58/1/4 64/1/4
f 61/3/4 62/3/4 65/3/4
f 62/1/4 63/1/4 65/1/4
f 63/3/4 64/3/4 66/3/4
f 65/1/4 63/1/4 66/1/4
f 57/1/4 61/1/4 67/1/4
f 61/3/4 65/3/4 67/3/4
f 65/3/4 66/3/4 67/3/4
f 64/1/4 58/1/4 68/1/4
f 67/3/4 66/3/4 68/3/4
f 66/3/4 64/3/4 68/3/4
f 55/3/4 57/3/4 69/3/4
f 57/1/4 67/1/4 69/1/4
f 67/1/4 68/1/4 69/1/4
f 68/1/4 58/1/4 70/1/4
f 69/1/4 68/1/4 70/1/4
f 58/3/4 56/3/4 70/3/4
f 55/3/4 69/3/4 71/3/4
f 69/3/4 70/3/4 71/3/4
f 70/3/4 56/3/4 72/3/4
f 71/3/4 70/3/4 72/3/4
f 75/3/5 74/3/5 73/3/5
f 76/3/5 74/3/5 75/3/5
f 77/1/5 76/1/5 75/1/5
f 78/1/5 76/1/5 77/1/5
f 79/3/5 78/3/5 77/3/5
f 80/1/5 76/1/5 78/1/5
f 80/3/5 78/3/5 79/3/5
f 81/1/5 76/1/5 80/1/5
f 82/3/5 79/3/5 77/3/5
f 82/1/5 80/1/5 79/1/5
f 83/3/5 81/3/5 80/3/5
f 83/1/5 80/1/5 82/1/5
f 84/1/5 76/1/5 81/1/5
f 84/3/5 81/3/5 83/3/5
f 85/1/5 77/1/5 75/1/5
f 85/3/5 83/3/5 82/3/5
f 85/3/5 82/3/5 77/3/5
f 86/1/5 84/1/5 83/1/5
f 86/3/5 83/3/5 85/3/5
f 87/3/5 75/3/5 73/3/5
f 87/1/5 85/1/5 75/1/5
f 87/1/5 86/1/5 85/1/5
f 88/1/5 84/1/5 86/1/5
f 88/1/5 86/1/5 87/1/5
f 88/3/5 74/3/5 76/3/5
f 88/1/5 76/1/5 84/1/5
f 89/3/5 87/3/5 73/3/5
f 89/3/5 88/3/5 87/3/5
f 90/3/5 74/3/5 88/3/5
f 90/3/5 88/3/5 89/3/5
f 91/3/6 92/3/6 93/3/6
f 93/3/6 92/3/6 94/3/6
f 93/1/6 94/1/6 95/1/6
f 95/1/6 94/1/6 96/1/6
f 95/3/6 96/3/6 97/3/6
f 96/1/6 94/1/6 98/1/6
f 97/3/6 96/3/6 98/3/6
f 98/1/6 94/1/6 99/1/6
f 95/3/6 97/3/6 100/3/6
f 97/1/6 98/1/6 100/1/6
f 98/3/6 99/3/6 101/3/6
f 100/1/6 98/1/6 101/1/6
f 99/1/6 94/1/6 102/1/6
f 101/3/6 99/3/6 102/3/6
f 93/1/6 95/1/6 103/1/6
f 100/3/6 101/3/6 103/3/6
f 95/3/6 100/3/6 103/3/6
f 101/1/6 102/1/6 104/1/6
f 103/3/6 101/3/6 104/3/6
f 91/3/6 93/3/6 105/3/6
f 93/1/6 103/1/6 105/1/6
f 103/1/6 104/1/6 105/1/6
f 104/1/6 102/1/6 106/1/6
f 105/1/6 104/1/6 106/1/6
f 94/3/6 92/3/6 106/3/6
f 102/1/6 94/1/6 106/1/6
f 91/3/6 105/3/6 107/3/6
f 105/3/6 106/3/6 107/3/6
f 106/3/6 92/3/6 108/3/6
f 107/3/6 106/3/6 108/3/6
