# MagicaVoxel @ Ephtracy

# group
o 

# material
mtllib Wardrobe.mtl
usemtl palette

# normals
vn -1 0 0
vn 1 0 0
vn 0 0 1
vn 0 0 -1
vn 0 -1 0
vn 0 1 0

# texcoords
vt 0.537109 0.5
vt 0.857422 0.5
vt 0.900391 0.5
vt 0.927734 0.5
vt 0.931641 0.5
vt 0.958984 0.5
vt 0.974609 0.5

# verts
v -1 -1 0.4
v -1 -1 -0.5
v -1 1 0.4
v -1 1 -0.5
v -0.7 0.1 0.2
v -0.7 0.1 -0.1
v -0.7 0.6 0.2
v -0.7 0.6 0.1
v -0.7 0.6 0
v -0.7 0.6 -0.1
v -0.4 -0.2 0.2
v -0.4 -0.2 -0.1
v -0.4 0.6 0.2
v -0.4 0.6 0.1
v -0.4 0.6 0
v -0.4 0.6 -0.1
v 0 0 0.2
v 0 0 -0.1
v 0 0.6 0.2
v 0 0.6 0.1
v 0 0.6 0
v 0 0.6 -0.1
v 0.3 0.3 0.2
v 0.3 0.3 -0.1
v 0.3 0.6 0.2
v 0.3 0.6 0.1
v 0.3 0.6 0
v 0.3 0.6 -0.1
v 0.6 -0.3 0.2
v 0.6 -0.3 -0.1
v 0.6 0.6 0.2
v 0.6 0.6 0.1
v 0.6 0.6 0
v 0.6 0.6 -0.1
v 0.9 -0.9 0.4
v 0.9 -0.9 -0.4
v 0.9 0.6 0.1
v 0.9 0.6 0
v 0.9 0.7 0.1
v 0.9 0.7 0
v 0.9 0.9 0.4
v 0.9 0.9 -0.4
v -0.9 -0.9 0.4
v -0.9 -0.9 -0.4
v -0.9 0.6 0.1
v -0.9 0.6 0
v -0.9 0.7 0.1
v -0.9 0.7 0
v -0.9 0.9 0.4
v -0.9 0.9 -0.4
v -0.6 0.1 0.2
v -0.6 0.1 -0.1
v -0.6 0.6 0.2
v -0.6 0.6 0.1
v -0.6 0.6 0
v -0.6 0.6 -0.1
v -0.3 -0.2 0.2
v -0.3 -0.2 -0.1
v -0.3 0.6 0.2
v -0.3 0.6 0.1
v -0.3 0.6 0
v -0.3 0.6 -0.1
v 0.1 0 0.2
v 0.1 0 -0.1
v 0.1 0.6 0.2
v 0.1 0.6 0.1
v 0.1 0.6 0
v 0.1 0.6 -0.1
v 0.4 0.3 0.2
v 0.4 0.3 -0.1
v 0.4 0.6 0.2
v 0.4 0.6 0.1
v 0.4 0.6 0
v 0.4 0.6 -0.1
v 0.7 -0.3 0.2
v 0.7 -0.3 -0.1
v 0.7 0.6 0.2
v 0.7 0.6 0.1
v 0.7 0.6 0
v 0.7 0.6 -0.1
v 1 -1 0.4
v 1 -1 -0.5
v 1 1 0.4
v 1 1 -0.5
v -1 -1 0.4
v -1 1 0.4
v -0.9 -0.9 0.4
v -0.9 0.9 0.4
v 0.9 -0.9 0.4
v 0.9 0.9 0.4
v 1 -1 0.4
v 1 1 0.4
v -0.7 0.1 0.2
v -0.7 0.6 0.2
v -0.6 0.1 0.2
v -0.6 0.6 0.2
v -0.4 -0.2 0.2
v -0.4 0.6 0.2
v -0.3 -0.2 0.2
v -0.3 0.6 0.2
v 0 0 0.2
v 0 0.6 0.2
v 0.1 0 0.2
v 0.1 0.6 0.2
v 0.3 0.3 0.2
v 0.3 0.6 0.2
v 0.4 0.3 0.2
v 0.4 0.6 0.2
v 0.6 -0.3 0.2
v 0.6 0.6 0.2
v 0.7 -0.3 0.2
v 0.7 0.6 0.2
v -0.9 0.6 0.1
v -0.9 0.7 0.1
v -0.7 0.6 0.1
v -0.6 0.6 0.1
v -0.4 0.6 0.1
v -0.3 0.6 0.1
v 0 0.6 0.1
v 0.1 0.6 0.1
v 0.3 0.6 0.1
v 0.4 0.6 0.1
v 0.6 0.6 0.1
v 0.7 0.6 0.1
v 0.9 0.6 0.1
v 0.9 0.7 0.1
v -0.9 -0.9 -0.4
v -0.9 0.9 -0.4
v 0.9 -0.9 -0.4
v 0.9 0.9 -0.4
v -0.9 0.6 0
v -0.9 0.7 0
v -0.7 0.6 0
v -0.6 0.6 0
v -0.4 0.6 0
v -0.3 0.6 0
v 0 0.6 0
v 0.1 0.6 0
v 0.3 0.6 0
v 0.4 0.6 0
v 0.6 0.6 0
v 0.7 0.6 0
v 0.9 0.6 0
v 0.9 0.7 0
v -0.7 0.1 -0.1
v -0.7 0.6 -0.1
v -0.6 0.1 -0.1
v -0.6 0.6 -0.1
v -0.4 -0.2 -0.1
v -0.4 0.6 -0.1
v -0.3 -0.2 -0.1
v -0.3 0.6 -0.1
v 0 0 -0.1
v 0 0.6 -0.1
v 0.1 0 -0.1
v 0.1 0.6 -0.1
v 0.3 0.3 -0.1
v 0.3 0.6 -0.1
v 0.4 0.3 -0.1
v 0.4 0.6 -0.1
v 0.6 -0.3 -0.1
v 0.6 0.6 -0.1
v 0.7 -0.3 -0.1
v 0.7 0.6 -0.1
v -1 -1 -0.5
v -1 1 -0.5
v 1 -1 -0.5
v 1 1 -0.5
v -1 -1 0.4
v 1 -1 0.4
v -1 -1 -0.5
v 1 -1 -0.5
v 0.6 -0.3 0.2
v 0.7 -0.3 0.2
v 0.6 -0.3 -0.1
v 0.7 -0.3 -0.1
v -0.4 -0.2 0.2
v -0.3 -0.2 0.2
v -0.4 -0.2 -0.1
v -0.3 -0.2 -0.1
v 0 0 0.2
v 0.1 0 0.2
v 0 0 -0.1
v 0.1 0 -0.1
v -0.7 0.1 0.2
v -0.6 0.1 0.2
v -0.7 0.1 -0.1
v -0.6 0.1 -0.1
v 0.3 0.3 0.2
v 0.4 0.3 0.2
v 0.3 0.3 -0.1
v 0.4 0.3 -0.1
v -0.9 0.6 0.1
v -0.7 0.6 0.1
v -0.6 0.6 0.1
v -0.4 0.6 0.1
v -0.3 0.6 0.1
v 0 0.6 0.1
v 0.1 0.6 0.1
v 0.3 0.6 0.1
v 0.4 0.6 0.1
v 0.6 0.6 0.1
v 0.7 0.6 0.1
v 0.9 0.6 0.1
v -0.9 0.6 0
v -0.7 0.6 0
v -0.6 0.6 0
v -0.4 0.6 0
v -0.3 0.6 0
v 0 0.6 0
v 0.1 0.6 0
v 0.3 0.6 0
v 0.4 0.6 0
v 0.6 0.6 0
v 0.7 0.6 0
v 0.9 0.6 0
v -0.9 0.9 0.4
v 0.9 0.9 0.4
v -0.9 0.9 -0.4
v 0.9 0.9 -0.4
v -0.9 -0.9 0.4
v 0.9 -0.9 0.4
v -0.9 -0.9 -0.4
v 0.9 -0.9 -0.4
v -0.7 0.6 0.2
v -0.6 0.6 0.2
v -0.4 0.6 0.2
v -0.3 0.6 0.2
v 0 0.6 0.2
v 0.1 0.6 0.2
v 0.3 0.6 0.2
v 0.4 0.6 0.2
v 0.6 0.6 0.2
v 0.7 0.6 0.2
v -0.7 0.6 0.1
v -0.6 0.6 0.1
v -0.4 0.6 0.1
v -0.3 0.6 0.1
v 0 0.6 0.1
v 0.1 0.6 0.1
v 0.3 0.6 0.1
v 0.4 0.6 0.1
v 0.6 0.6 0.1
v 0.7 0.6 0.1
v -0.7 0.6 0
v -0.6 0.6 0
v -0.4 0.6 0
v -0.3 0.6 0
v 0 0.6 0
v 0.1 0.6 0
v 0.3 0.6 0
v 0.4 0.6 0
v 0.6 0.6 0
v 0.7 0.6 0
v -0.7 0.6 -0.1
v -0.6 0.6 -0.1
v -0.4 0.6 -0.1
v -0.3 0.6 -0.1
v 0 0.6 -0.1
v 0.1 0.6 -0.1
v 0.3 0.6 -0.1
v 0.4 0.6 -0.1
v 0.6 0.6 -0.1
v 0.7 0.6 -0.1
v -0.9 0.7 0.1
v 0.9 0.7 0.1
v -0.9 0.7 0
v 0.9 0.7 0
v -1 1 0.4
v 1 1 0.4
v -1 1 -0.5
v 1 1 -0.5

# faces
f 3/1/1 2/1/1 1/1/1
f 4/1/1 2/1/1 3/1/1
f 7/2/1 6/2/1 5/2/1
f 8/2/1 6/2/1 7/2/1
f 9/2/1 6/2/1 8/2/1
f 10/2/1 6/2/1 9/2/1
f 13/5/1 12/5/1 11/5/1
f 14/5/1 12/5/1 13/5/1
f 15/5/1 12/5/1 14/5/1
f 16/5/1 12/5/1 15/5/1
f 19/3/1 18/3/1 17/3/1
f 20/3/1 18/3/1 19/3/1
f 21/3/1 18/3/1 20/3/1
f 22/3/1 18/3/1 21/3/1
f 25/6/1 24/6/1 23/6/1
f 26/6/1 24/6/1 25/6/1
f 27/6/1 24/6/1 26/6/1
f 28/6/1 24/6/1 27/6/1
f 31/4/1 30/4/1 29/4/1
f 32/4/1 30/4/1 31/4/1
f 33/4/1 30/4/1 32/4/1
f 34/4/1 30/4/1 33/4/1
f 37/1/1 36/1/1 35/1/1
f 38/1/1 36/1/1 37/1/1
f 39/1/1 37/1/1 35/1/1
f 40/1/1 36/1/1 38/1/1
f 41/1/1 39/1/1 35/1/1
f 41/1/1 40/1/1 39/1/1
f 42/1/1 36/1/1 40/1/1
f 42/1/1 40/1/1 41/1/1
f 43/1/2 44/1/2 45/1/2
f 45/1/2 44/1/2 46/1/2
f 43/1/2 45/1/2 47/1/2
f 46/1/2 44/1/2 48/1/2
f 43/1/2 47/1/2 49/1/2
f 47/1/2 48/1/2 49/1/2
f 48/1/2 44/1/2 50/1/2
f 49/1/2 48/1/2 50/1/2
f 51/2/2 52/2/2 53/2/2
f 53/2/2 52/2/2 54/2/2
f 54/2/2 52/2/2 55/2/2
f 55/2/2 52/2/2 56/2/2
f 57/5/2 58/5/2 59/5/2
f 59/5/2 58/5/2 60/5/2
f 60/5/2 58/5/2 61/5/2
f 61/5/2 58/5/2 62/5/2
f 63/3/2 64/3/2 65/3/2
f 65/3/2 64/3/2 66/3/2
f 66/3/2 64/3/2 67/3/2
f 67/3/2 64/3/2 68/3/2
f 69/6/2 70/6/2 71/6/2
f 71/6/2 70/6/2 72/6/2
f 72/6/2 70/6/2 73/6/2
f 73/6/2 70/6/2 74/6/2
f 75/4/2 76/4/2 77/4/2
f 77/4/2 76/4/2 78/4/2
f 78/4/2 76/4/2 79/4/2
f 79/4/2 76/4/2 80/4/2
f 81/1/2 82/1/2 83/1/2
f 83/1/2 82/1/2 84/1/2
f 87/1/3 86/1/3 85/1/3
f 88/1/3 86/1/3 87/1/3
f 89/1/3 87/1/3 85/1/3
f 90/1/3 86/1/3 88/1/3
f 91/1/3 89/1/3 85/1/3
f 91/1/3 90/1/3 89/1/3
f 92/1/3 86/1/3 90/1/3
f 92/1/3 90/1/3 91/1/3
f 95/2/3 94/2/3 93/2/3
f 96/2/3 94/2/3 95/2/3
f 99/5/3 98/5/3 97/5/3
f 100/5/3 98/5/3 99/5/3
f 103/3/3 102/3/3 101/3/3
f 104/3/3 102/3/3 103/3/3
f 107/6/3 106/6/3 105/6/3
f 108/6/3 106/6/3 107/6/3
f 111/4/3 110/4/3 109/4/3
f 112/4/3 110/4/3 111/4/3
f 115/7/3 114/7/3 113/7/3
f 116/7/3 114/7/3 115/7/3
f 117/7/3 114/7/3 116/7/3
f 118/7/3 114/7/3 117/7/3
f 119/7/3 114/7/3 118/7/3
f 120/7/3 114/7/3 119/7/3
f 121/7/3 114/7/3 120/7/3
f 122/7/3 114/7/3 121/7/3
f 123/7/3 114/7/3 122/7/3
f 124/7/3 114/7/3 123/7/3
f 125/7/3 114/7/3 124/7/3
f 126/7/3 114/7/3 125/7/3
f 129/1/3 128/1/3 127/1/3
f 130/1/3 128/1/3 129/1/3
f 131/7/4 132/7/4 133/7/4
f 133/7/4 132/7/4 134/7/4
f 134/7/4 132/7/4 135/7/4
f 135/7/4 132/7/4 136/7/4
f 136/7/4 132/7/4 137/7/4
f 137/7/4 132/7/4 138/7/4
f 138/7/4 132/7/4 139/7/4
f 139/7/4 132/7/4 140/7/4
f 140/7/4 132/7/4 141/7/4
f 141/7/4 132/7/4 142/7/4
f 142/7/4 132/7/4 143/7/4
f 143/7/4 132/7/4 144/7/4
f 145/2/4 146/2/4 147/2/4
f 147/2/4 146/2/4 148/2/4
f 149/5/4 150/5/4 151/5/4
f 151/5/4 150/5/4 152/5/4
f 153/3/4 154/3/4 155/3/4
f 155/3/4 154/3/4 156/3/4
f 157/6/4 158/6/4 159/6/4
f 159/6/4 158/6/4 160/6/4
f 161/4/4 162/4/4 163/4/4
f 163/4/4 162/4/4 164/4/4
f 165/1/4 166/1/4 167/1/4
f 167/1/4 166/1/4 168/1/4
f 171/1/5 170/1/5 169/1/5
f 172/1/5 170/1/5 171/1/5
f 175/4/5 174/4/5 173/4/5
f 176/4/5 174/4/5 175/4/5
f 179/5/5 178/5/5 177/5/5
f 180/5/5 178/5/5 179/5/5
f 183/3/5 182/3/5 181/3/5
f 184/3/5 182/3/5 183/3/5
f 187/2/5 186/2/5 185/2/5
f 188/2/5 186/2/5 187/2/5
f 191/6/5 190/6/5 189/6/5
f 192/6/5 190/6/5 191/6/5
f 205/7/5 194/7/5 193/7/5
f 206/7/5 194/7/5 205/7/5
f 207/7/5 196/7/5 195/7/5
f 208/7/5 196/7/5 207/7/5
f 209/7/5 198/7/5 197/7/5
f 210/7/5 198/7/5 209/7/5
f 211/7/5 200/7/5 199/7/5
f 212/7/5 200/7/5 211/7/5
f 213/7/5 202/7/5 201/7/5
f 214/7/5 202/7/5 213/7/5
f 215/7/5 204/7/5 203/7/5
f 216/7/5 204/7/5 215/7/5
f 219/1/5 218/1/5 217/1/5
f 220/1/5 218/1/5 219/1/5
f 221/1/6 222/1/6 223/1/6
f 223/1/6 222/1/6 224/1/6
f 225/2/6 226/2/6 235/2/6
f 235/2/6 226/2/6 236/2/6
f 227/5/6 228/5/6 237/5/6
f 237/5/6 228/5/6 238/5/6
f 229/3/6 230/3/6 239/3/6
f 239/3/6 230/3/6 240/3/6
f 231/6/6 232/6/6 241/6/6
f 241/6/6 232/6/6 242/6/6
f 233/4/6 234/4/6 243/4/6
f 243/4/6 234/4/6 244/4/6
f 245/2/6 246/2/6 255/2/6
f 255/2/6 246/2/6 256/2/6
f 247/5/6 248/5/6 257/5/6
f 257/5/6 248/5/6 258/5/6
f 249/3/6 250/3/6 259/3/6
f 259/3/6 250/3/6 260/3/6
f 251/6/6 252/6/6 261/6/6
f 261/6/6 252/6/6 262/6/6
f 253/4/6 254/4/6 263/4/6
f 263/4/6 254/4/6 264/4/6
f 265/7/6 266/7/6 267/7/6
f 267/7/6 266/7/6 268/7/6
f 269/1/6 270/1/6 271/1/6
f 271/1/6 270/1/6 272/1/6
